<svg xmlns="http://www.w3.org/2000/svg" viewBox="0 0 928.17 372.01"><defs><style>.cls-1{fill:none;}</style></defs><g id="レイヤー_2" data-name="レイヤー 2"><g id="mask"><path class="cls-1" d="M28.87,158.32S3.11,183.69.08,140.7s86.33-46.92,82.14-36.46,83.13-17,68.54-23.25h0L86.48,114.26h0c-.35,0-14.37-.88-18.37,43-4,44.45-4.93,65-33,63.72S16.05,192.3,23,197.5s55.72-.82,58.86-9.31,14.43-24.42,15.79-53.95c1.3-28.53-7,54.48-7.62,60.16a0,0,0,0,0,.09,0c1.58-3.73,18.23-42.31,22-19.58,3.92,23.87,11.94,14.13,17.93,0s12.82-32.86,25.4-17S139,126.71,136,172.71c0,0-1,25.61,17.42-5.07,0,0,.08,0,.09,0,.43,1.8,6.71,25.53,25.73-5.1,0,0,0,0,.33-1.73l5.41-43S167,208.25,209,156c40.32-50.18-33-17.53-39-14.83,0,0,0,.1,0,.09l29.54-6.2h0l47.22,1a0,0,0,0,1,0,0c.07,1.82,2.73,62.55,30.2-10.27,0,0-4,1.85.08,0,2.09-.94,18.19,37.81-5.12,22.86,0,0,25.79,19.89,38.39-15.06s-64-9.87-60.67-18.91.08-5.06.08-5.06l114.25,8a0,0,0,0,0,.05-.06c-.54-1-7.62-14-18.63,8.59-11.43,23.41,13.6,16.19,15.63.47a0,0,0,0,1,.08,0c1,2,12.52,24,30.27-6.8,18.07-31.33,34.95-25.78,35.81-25.47,0,0,0,0,0,0l-8,62.94c0,.06.07.09.08,0,1.89-6.66,19-65.83,31-60.92,12.51,5.14,1.06,23.8-8.41,23.76-.06,0-.07.07,0,.08,3.53.87,32.43,6.48,42-39a0,0,0,0,0-.07,0c-1.18.82-12.88,9.41,9.54,11.83,0,0,.05,0,0,.06-.32,1.25-6.66,27,14.71,15.89l0,0,9-12.72s0,0,0,0c.5,0,16.35-1.82,9.22-18.56a.05.05,0,0,0-.05,0c-.95.25-18.86,5.3-4.75,26.83h0c.21.13,14.19,9.24,28.29-11.24,0,0,0,0,0,0,.29-.14,19-9.23,14.19-21.36,0,0,0,0-.06,0-1.17.41-26.61,9.64-6,27h0c.45.06,25,2.88,30.06-27.5,0,0,.09-.06.09,0,.06,4.87,1.09,41.49,19.36,11.93a.09.09,0,0,0,0,0l-17-38.76s-.06,0-.08,0l-5.64,7.74a.05.05,0,0,0,0,.08l42,10.66c.05,0,.08,0,.05-.07-1-1.26-10.38-12.83-14.48,17.14h0c0,.21,2.82,20.95,18.21,2.82h0s7.92-11.08-2.76-16.64a0,0,0,0,0,0,0c-.56.39-12.94,9.28,0,14.29h0c.12,0,28.2,6.8,28.73-28,0,0-8.2,40.51,8.16,22.83v0l8.4-18.76a0,0,0,0,1,.09,0c.42,3.23,7.67,53.74,32.83-16.83a0,0,0,0,0-.06-.06l-3.85,1.65a0,0,0,0,0,0,.07c.86,1.15,18.9,25.4,10,29.77,0,0-7.07-1.53-9.88-1.47,0,0,17,18.73,34.38-19.66h0l26.25-24.16s0,0,0,0L794,19.12a.05.05,0,0,0,0-.09L777.76,7.19a0,0,0,0,0-.07,0C777.08,9.32,760,69,789.75,56.48h0c.18-.16,18.24-15.4,17.26-29,0,0-6.45,38.65,17.28,21.47h0c.16-.21,14.22-20.36,9-25.76S810.91.84,810.06,0c0,0,0,0-.06,0l-4.39,5a0,0,0,0,0,0,.06l26.19,21.75a.05.05,0,0,1,0,0l1.45,20.61s.07.07.09,0C834.49,45.2,848.1,17,851,21.19c0,0,0,0,0,0-.16.72-6.41,28.37,6.22,11.05h0c.07-.13,15.47-30.69,11.64-6.65h0c0,.14-10,27.16,17.56,6.65h0s21.75-18.5,15.71-26l0,0c-.43,0-11.5-1.2-11.79,16.46h0c.06.23,7.25,31.16,37.83-8.17a.05.05,0,0,0-.06-.08L508.15,169.71h0l-202.65,92,0,0-2.19,9h0l-.95,19.44s-1,110.6-34.13,74.54h0c-.09-.15-13.1-22.37,37.3-51.67,0,0,27.57-37.4,22-35.57,0,0-7.24,59.57,16.07,4.6a0,0,0,0,1,.09,0c.28,2.81,4.24,37.66,25.86,6.27v0l6.59-42.16s-18,93.46,26.43,30.05c0,0,0-.07,0-.07l-40.61-9.58s0-.07,0-.09l30.82-9.48h0l44.67,20.23s0,0,.05,0c.7-1.3,20.32-37.76,15-52.53,0,0,0,0,0,0-.63,0-10.72.69-15,56.92,0,0-6,72.17,16.26,30.61h0c0-.09,8.31-21.36-12-31.92,0,0,0-.09,0-.09,2.19-.17,26.63-2.32,26.49-12.18l0,0,13.68-11.84a0,0,0,0,0,0-.05c-.19-.73-4.69-17-12.7,4.52h0c0,.24-3.16,32.5,18.78,13.31h0c.11-.27,7.3-17.19-3.27-17.24h0c-.31.23-11.35,8.41.9,11.66,0,0,28.39,8.3,31.41-33.62,0,0,0-.06,0-.05-.63.22-5.82,2.16-3.94,5,0,0,8.73,12.71,14.33,8.49a0,0,0,0,1,.07,0c-.28,2.3-4.94,43.08,23.91-.09l0,0,36.9-17.61a0,0,0,0,1,.06,0c-.41,1.92-9.29,41.16,3.94,14.59,0,0,14.45-25.88,13.11-8.16,0,0-3.64,17.28,6,0h0s14.19-20.69,9.43,0h0c0,.17,0,26.19,23.08,0,0,0,0,0,0,0,.21-.1,16.07-8,12.64-23.54,0,0,0-.05,0,0-1.15.38-23.3,8.2-1.19,29.95,0,0,0,0,0,0,.61,0,21.47-.14,25.56-21.68a0,0,0,0,1,.07,0l14,7.12s0,0,0,.06l-4.23,8a.07.07,0,0,0,0,.06L708,253.71"/></g></g></svg>