<svg id="レイヤー_1" data-name="レイヤー 1" xmlns="http://www.w3.org/2000/svg" viewBox="0 0 859.42 1279.76"><defs><style>.cls-1{fill:#fff;}</style></defs><path class="cls-1" d="M529.6,3.2c-3.5,3.6-6.4,11.1-11.3,29.3-2.9,10.7-11.8,40-31,101.5-10.2,32.9-14.1,45-35.3,110-7.6,23.4-16,49.7-18.5,58.5s-8,26.3-12.1,39-9.7,30.2-12.4,39c-5.1,16.7-8.5,25.5-9.9,25.5a4,4,0,0,1-2.2-1.6c-1.9-2.3-24.2-57.3-32.8-80.9-1.8-5-6.2-15.3-9.6-23S345.7,280,342.7,272s-7.8-19.8-10.6-26.3-7.3-16.9-10.1-23.3-5-11.9-5-12.5-2.9-7.6-6.4-15.7-10.6-25.3-15.9-38.3C273.8,104.4,243.5,40.2,231.9,23c-4.6-6.9-13.8-15.7-17.3-16.6s-6.9,2.3-9.3,8.5c-1.5,3.9-1.8,7.5-1.7,22.6.2,20.4,2.3,38.1,6,51.8,1.4,5.1,4.5,16.6,6.8,25.7s7.7,26.6,11.9,39,8.7,27.4,10.1,33.5c5.4,23,7.6,31.4,11.5,42.5,2.2,6.3,6.3,20.2,9.1,30.9s6.6,24,8.5,29.5,5.9,20,8.9,32.1c15,59.4,22.1,86.3,29.6,111,12.2,40,13.1,43.3,25.1,90,6.1,23.6,11.5,45.8,11.9,49.3,1.2,9.2-2.5,22.2-19.6,69.7-4.6,13.1-9.8,29.8-11.9,38.5-2,8.5-5.9,22.2-8.6,30.5s-6.5,21.3-8.5,29c-11.9,46.3-31.4,107.8-38.2,121-4.2,8.2-19.2,23.8-28.5,29.9-16.7,10.8-26.4,15.1-60.7,26.8-49.8,16.9-84.3,36.5-108,61.4-14,14.7-20.5,24.7-30.1,46.4-2.5,5.8-7.3,16.4-10.6,23.6a198.6,198.6,0,0,0-15.5,47.2c-2.9,16-3.2,54.1-.4,70.7,5.2,31.4,18,58,37,77a132,132,0,0,0,49.7,30.9c20.8,7,58.6,5.6,80.9-2.9,38.4-14.7,73.4-60.1,95.1-123.4,12.6-36.7,16.7-70.2,11.5-95.1-10-47.8-12-52.8-29.5-72.9-8.9-10.3-10.1-12.9-7.8-16.5,2.9-4.3,12.1-11.3,20.4-15.5,7.3-3.6,9-5.1,14.3-11.7,20.1-25.3,36.7-57.4,43.5-84.5,3.2-12.8,19.8-59.2,28.8-80.4,3.9-9.3,4.9-10.7,14.7-20.9,11.9-12.3,38.3-36.6,41.9-38.5a9.6,9.6,0,0,1,6-.6c3,.5,7,4.1,25.7,22.8,35.9,36.2,59.4,64.8,65.4,79.8,3.5,8.7,14.5,33.9,24.7,56.4,15.4,33.8,33.1,53.3,62,68.3,7.7,3.9,14.8,8,15.7,9.1,2.5,2.7,1.6,5.5-3.9,12.1-9.3,11.3-14.6,24.4-22,54.2l-4.4,17.6,2,15.4c5.4,42.1,8.9,59.2,14.8,73.3,2.1,4.9,5.1,12.8,6.7,17.5a121.69,121.69,0,0,0,9.3,19c3.5,5.8,8.2,13.7,10.5,17.6,14.1,24.2,41.3,53.7,63,68.2,9.2,6.1,28.1,13.8,37.1,15.1,9.5,1.4,53,1.4,59.7,0s21.4-8.2,30.8-14.3c14.4-9.3,28.1-25.8,40.4-48.7,9-16.8,12.4-30.5,13.3-53.4,1-27-2.4-59.8-8.2-80a124.11,124.11,0,0,0-8-19.1c-2.9-5.5-6.9-14.3-9-19.5-5.3-13.4-13.7-29.2-19.8-37.4-8.4-11.4-41.9-44.2-52.5-51.6-19.6-13.6-25-15.5-74.7-25.5-41.3-8.3-55.5-11.8-68.9-17.1-20.4-8-27-12.7-34.8-24.5-14-21.2-32.3-55.8-38.4-72.3-1.8-5-6.4-17.1-10.2-27-10.3-26.7-13.5-36.6-20.1-62.5-3.3-12.9-7.3-27.3-8.9-32-7-20.1-35.8-93.4-40.2-102s-4.2-11.4,1.1-32.4c2.7-10.5,10.7-42.3,17.9-70.6s14.3-56.7,16-63,8.6-34,15.5-61.5,14.7-57.4,17.5-66.4,5.4-19.1,5.9-22.5a133.28,133.28,0,0,1,3.4-14.6c4.4-14.6,14.9-63.8,19.2-89,8.6-51.5,7.9-83-2.6-117.5-5.5-18-12.8-30.3-19.5-33.1C535.4-.7,533.1-.3,529.6,3.2ZM703.5,956.5c19.3,3.4,35.4,12.6,54.4,31,16.4,15.9,23.1,24.7,30.5,40,18.8,38.5,25.1,61.7,25,91.5-.3,32.5-7.5,51.2-27.9,71.5-15.3,15.3-29.7,20.7-51,19.1-30.4-2.2-60.4-23-82.9-57.6-4.9-7.4-10.9-16.7-13.5-20.5-5.7-8.4-7.5-12.7-10.2-24.8-1.1-5.1-3.5-13.7-5.4-19.2-4.6-13.6-5.9-23.8-5.2-40.4.9-20.8,6-41.1,14.1-55.5,6.9-12.3,21.6-25.8,36.4-33.2,6.3-3.2,7.3-3.4,16.8-3.4A139.24,139.24,0,0,1,703.5,956.5ZM160,981.1c9,1.4,19.8,5.1,31,10.6,17.6,8.7,30.9,25.1,38.4,47.5,7.9,23.5,8.4,47.9,1.5,76-9.5,39.1-27,64.5-59.6,86.6-14.5,9.7-18.2,11.6-25.8,13.2-8.4,1.7-33.6,1.8-40.5.2-7.5-1.9-22-9-30.6-15.1-12.3-8.6-16.2-14.8-23.8-37.1-5.8-17.2-6.9-24.8-6.1-42.5,1.2-26.3,3.8-37.1,15.5-64.5,11.8-27.6,21.4-41.4,38.6-55.1C119.7,984.1,139.5,977.7,160,981.1Z" transform="translate(-0.45 -0.12)"/></svg>