<svg xmlns="http://www.w3.org/2000/svg" viewBox="0 0 928.28 377.03"><defs><style>.cls-1{fill:#fff;}</style></defs><g id="レイヤー_2" data-name="レイヤー 2"><g id="text01"><path class="cls-1" d="M16.6,169.13c-2.15,0-2.94-.18-4.15-.86C9,166.2,6,164.05,3.82,160.19l-.26-.56a4.61,4.61,0,0,1-.62-1.56,16.2,16.2,0,0,0-.78-2.44,40.63,40.63,0,0,0-2-3.74,16.25,16.25,0,0,0-.11-3.65,16.65,16.65,0,0,1,.37-5.88,8.28,8.28,0,0,0,.74-4.74,2.92,2.92,0,0,1,.33-1.44c2.36-5.05,4.82-9.66,8.18-13.54a37.25,37.25,0,0,1,4.51-4.26,25.77,25.77,0,0,0,4.12-3.87,3.77,3.77,0,0,1,1-.65l13.19-6.73a32.81,32.81,0,0,0,5.33-1.67,17.09,17.09,0,0,1,5.91-1.78,4.57,4.57,0,0,1,1.24.06,4,4,0,0,0,3.38-.67c.53-.41.83-.47,2-.23A4.24,4.24,0,0,0,52,103l.59-.11a5.25,5.25,0,0,0,1.47-.29c2-.85,3.36-1.59,5.27-1.2a7.31,7.31,0,0,0,2.56-.2,7.54,7.54,0,0,1,2.59,0,3.84,3.84,0,0,0,2.15,0c1.85-.67,3.76-.29,6,.19a18.91,18.91,0,0,0,3.23.12,8.53,8.53,0,0,1,3.59.37,70.74,70.74,0,0,1,9.65.07c1.73.27,2.64.25,3.73.34.15,0,.33.09.62,0a3.83,3.83,0,0,0,3.09-.61c.38-.39.56-.27,1.5-.15a3.37,3.37,0,0,0,1.71.12l1.32-.26a3.88,3.88,0,0,1,2.3,0,4.33,4.33,0,0,0,2.35-.47,3.58,3.58,0,0,1,1-.35,24.09,24.09,0,0,0,6.65-.4A35.36,35.36,0,0,0,121,98c2.39-1.08,5-2,7.22-3a19.79,19.79,0,0,0,4.85-2.49,5,5,0,0,0,.8-.62,13.36,13.36,0,0,1,3.8-2.43,12.57,12.57,0,0,0,5.63-4.79,16.22,16.22,0,0,1,4.77-4.46,1.63,1.63,0,0,1,2.36.3c.32.09.73,1.39.46,1.59a7.71,7.71,0,0,1-2.18,2.88c-.68.44-.91.79-2,1.47-.65.58-1.48,1-2,1.46a20.87,20.87,0,0,0-3.53,3,13.48,13.48,0,0,1-3.69,3l-1.65.93a27.73,27.73,0,0,0-5.56,3.55c-.15,0-.12.18-.27.21a12.32,12.32,0,0,0-4.41,1.64,23.7,23.7,0,0,1-4.3,1.46c-2.5.49-4.86,1.72-8.27,1.48l-2.21.44a49.67,49.67,0,0,0-6.59,1.45,6.66,6.66,0,0,1-2.44,0,6.66,6.66,0,0,0-3,.14,11.63,11.63,0,0,1-4.53.28,2.6,2.6,0,0,0-2.15,0,7.36,7.36,0,0,1-3.32.2,8.91,8.91,0,0,0-2.92,0,15,15,0,0,1-3.38-.09,7.76,7.76,0,0,0-2.35-.3,57.88,57.88,0,0,1-7-.61,40.42,40.42,0,0,1-4.21-.39,11.62,11.62,0,0,0-3.18.17,2.15,2.15,0,0,0-1,.06l-.74.14a5.24,5.24,0,0,1-2.88.12,3.26,3.26,0,0,0-1.21.08,5.29,5.29,0,0,0-1.56.62c-1.15.37-1.41.58-2.21.43-1.17-.53-2.61-.09-3.76.29l-1.18.23a8.37,8.37,0,0,1-1.94.23l-1.91.38a8.45,8.45,0,0,0-1.89.53,14.85,14.85,0,0,1-2.5.49,16.59,16.59,0,0,0-5.3,1.81c-.44.09-.7.3-1,.35a5.79,5.79,0,0,1-1.74.5,8.31,8.31,0,0,0-4,1.55c-4.39,1-7.54,3.63-10.69,6.24-.68.44-1.33,1-1.86,1.44-2.09,1.79-3.74,3.49-5.39,5.2l-2.24,2.58a22.94,22.94,0,0,1-1.54,3.06,19.06,19.06,0,0,0-1.27,2.08,8.53,8.53,0,0,0-.5,1.32,34.18,34.18,0,0,1-2.54,4.94,3.93,3.93,0,0,0-.59,1.65A23.87,23.87,0,0,1,4.45,144a12.69,12.69,0,0,0,.22,4.24,33.8,33.8,0,0,1,.93,5.47c.9,4.57,5.51,10.08,10,11.79a7.44,7.44,0,0,0,8.21-1.77c1.47-1.83,3.45-2.67,5.51-3.85.38-.38.88-.17,1.56.15s.88,1.36.64,1.71a9.83,9.83,0,0,1-5.57,5.08l-2.56,1a9.46,9.46,0,0,1-5.86,1.31C17.22,169.16,16.89,169.07,16.6,169.13Zm24.62,56.45a8.93,8.93,0,0,1-1.21.08,39.39,39.39,0,0,1-11.44-1.4,1,1,0,0,1-.85-.45,8,8,0,0,0-3.32-2.09,5.1,5.1,0,0,1-2.5-1.8c-1.29-1.89-2.14-3.1-2.81-3.42-.18-.12-.91-2.27-1.46-5.83l-.18-.88a10.57,10.57,0,0,1,.13-2.47c.12-.94.35-2.06.36-2.83a11.46,11.46,0,0,1,2.39-5.67c1.09-1.44,2.21-1.2,3.26.27.18.89.06,1.83-.89,4A14.54,14.54,0,0,0,21,208.47c-.28,6.33,2.71,8.33,5.33,10,.73.62,1.06.7,1.44,1.09a10.38,10.38,0,0,0,5.67,2.39,5.5,5.5,0,0,1,2.26.62,4.09,4.09,0,0,0,2.53-.34,1.64,1.64,0,0,1,.71-.3,9.52,9.52,0,0,1,2.24-.29,3,3,0,0,1,1.09.1,3.84,3.84,0,0,0,2.82-.41A7.89,7.89,0,0,1,47,220.15a12.27,12.27,0,0,0,4-2.94,5.12,5.12,0,0,1,2.42-2.46,3.07,3.07,0,0,0,1.86-2.2A7.59,7.59,0,0,1,57,209.61a5,5,0,0,1,.71-1.06,15.86,15.86,0,0,0,1.15-1.91,18.13,18.13,0,0,1,1.8-4,30.05,30.05,0,0,0,2-5.14,14.19,14.19,0,0,0,.86-2.62,52.89,52.89,0,0,1,2.13-6.23,3.27,3.27,0,0,0,.21-2,8.42,8.42,0,0,1,.09-1.85,8.39,8.39,0,0,0,.63-3,9.75,9.75,0,0,1,.3-2.35,5.47,5.47,0,0,0,0-3.21l.78-8.41a17,17,0,0,1,.33-4.5l.21-2a10.44,10.44,0,0,1,.27-2.5,11.5,11.5,0,0,0-.22-6.53,24.92,24.92,0,0,0,.28-4.79c.06-2.77.1-5.68,1.16-8a6.47,6.47,0,0,0,.39-4.21,4.85,4.85,0,0,1,.66-4.41,24.25,24.25,0,0,0,2.13-4.7A16.6,16.6,0,0,1,75.27,121a4.28,4.28,0,0,1,2.18-3.65l1.45-1.2a15.9,15.9,0,0,1,5-3.28c.7-.3,1.23-.71,2.21-1.21a14.18,14.18,0,0,1,1.62-1.08c.7-.29,1-.35,1.5-.14A2.78,2.78,0,0,1,91,111.75c.23.42-.42,1.77-1.24,2.24l-3,1.67.15,0c-3.27,1.26-5.39,3.66-7.4,5.89l-1.88,2.06c-.92.79-1.36,1.64-1.83,3.88l-.3.82c.41,1.3.17,2.41-.77,4.59-.18.65-.63,1.5-.8,2.14-.69,2.74-.75,4-.31,5.42a9.8,9.8,0,0,1,0,3.06,6.3,6.3,0,0,1,0,.76,17.51,17.51,0,0,0-.16,6.15c.21,1,.15,1.5.12,1.35-1.07,1.59-1.24,3-.69,5.8a1.08,1.08,0,0,1,0,.61,2.52,2.52,0,0,1-.06,1.24l-.91,9.35c0,.62-.18,1.41-.18,2.18a25,25,0,0,0,.2,2.56c.09,2,0,2.29-.21,2.79a3.3,3.3,0,0,0-.51,2.85c.24.42.18.89-.06,2a4,4,0,0,0-.33,2.21A2.73,2.73,0,0,1,70.4,186a5,5,0,0,0-.51,1.32,18.16,18.16,0,0,0-.77,3l-.53,2c-.66,3.64-1,7.23-3.5,10.17-.15,1.55-.71,2.58-2.12,4.7a17,17,0,0,0-2.46,4.61c0,.15,0,.15-.35.53l-.77.76A16.88,16.88,0,0,0,57,216.2a9.58,9.58,0,0,1-4,4A9,9,0,0,0,50.61,222c-.15,0-.15,0-.27.2l-.5.56A34.65,34.65,0,0,1,46,224.17l-3.57,1.32C42,225.58,41.51,225.52,41.22,225.58Z"/><path class="cls-1" d="M136.68,169.39a7.34,7.34,0,0,1-1.6,4.29,4.22,4.22,0,0,1-1,1.26,11.21,11.21,0,0,0-2,4.06,8,8,0,0,1-1.6,2,16.26,16.26,0,0,0-1.85,2.21,31.63,31.63,0,0,1-4.31,4.52c-2,1.61-4.51,2.72-6.77,2.1a9.81,9.81,0,0,1-2.32-.92c-3.82-1.53-6-6.6-5.57-11.13l.6-3.94,0-.14a4.32,4.32,0,0,0-1-3c-.47-.82-2.15-.8-2.8-.21-1.91,1.91-4,3.85-5.19,6.23a36.13,36.13,0,0,1-1.62,3.38A111.43,111.43,0,0,0,95.1,190.3a33.1,33.1,0,0,0-1.22,3.15,10.25,10.25,0,0,0-.41,1,2.43,2.43,0,0,1-2.89,1.64c-.61,0-1.26-1-1.23-1.59l.34-4.5a38.87,38.87,0,0,1,.75-7.8,7.54,7.54,0,0,0,0-1.67,9.13,9.13,0,0,1-.23-1.94c-.65,1.35-1,2.49-1.71,3.7a17.64,17.64,0,0,1-4,5.37l-1,1c-.5.56-.59.88-1,1-2,.7-3.09-.92-2-2.5l.91-.8c1.47-1.05,3.18-2.46,3.74-4.25a31.83,31.83,0,0,0,4.55-7.94c.41-1,1-2.17,1.33-3.32l.33-1.44a10.11,10.11,0,0,1,.35-1.29l.21-1.27c.45-1.61.6-2.41.27-3.26a3.06,3.06,0,0,1,.57-1.8c0-.14.09-.32.18-.64,0-.15.11-.18.08-.33.21-.49.33-.67.27-1a10.16,10.16,0,0,1,.1-4.91,15.12,15.12,0,0,0,.42-3.29,27.42,27.42,0,0,1,.36-4.35,40.93,40.93,0,0,0,.39-4.21,13.83,13.83,0,0,1,.78-5.35,9.09,9.09,0,0,0,.38-1.91c.33-.68.57-1,1.65-.94.62,0,.83.29.77.77a10.9,10.9,0,0,1,1,7.44c-.42,2.53-.63,4.56-.81,6.73-.24,1.12-.3,2.36-.5,3.62,0,.77-.81,5.21-1,5.85a4.41,4.41,0,0,1-.35,1.3c-.72,2.58-.81,3.67-.37,5.11a4.3,4.3,0,0,0-.74,3.21,12,12,0,0,1-.8,3.67,8.43,8.43,0,0,0,0,5.21,2.16,2.16,0,0,0,.41.53c.5.21,1.67,0,1.56.15a53.66,53.66,0,0,0,3.57-5.14,24.92,24.92,0,0,0,1.68-2.32c.89-1.7,2-2.52,4.39-4.08a4.85,4.85,0,0,1,4.38-.25c.65.17.89.59,1.18,1.29l.85,2a12,12,0,0,1,.1,5.17,19.79,19.79,0,0,0,.61,4.62l.67,3.39c1.79,2.85,3.34,6.06,7.94,2.25a15.36,15.36,0,0,0,1.62-1.09,12.37,12.37,0,0,0,3.24-3.69A27.29,27.29,0,0,1,128.6,178c1.91-1.91,3.12-2.76,3.81-5.49a15.2,15.2,0,0,1,1.62-3.38c.44-.85,1-1.26,1.94-1A1.3,1.3,0,0,1,136.68,169.39Z"/><path class="cls-1" d="M180.38,161.51a.54.54,0,0,0-.06.47l-.12.18c-.27,1-.33,1.44-.47,1.47L176,171.71a10.78,10.78,0,0,1-3.15,4.14,1.56,1.56,0,0,1-.68.44,13.77,13.77,0,0,1-5.27,3.49,17.9,17.9,0,0,0-2.42.93L163,181a2.92,2.92,0,0,0-1.06.05c-3.94.17-5.53-.89-8.58-4a4.45,4.45,0,0,0-.94-.88c-.2-.27-1.41-.18-2,.08a17.46,17.46,0,0,1-1.86,2.2l-1.74,2c-.26.21-.41.23-.65.59a5.83,5.83,0,0,1-1.56,1.38c-2.44,2.31-4.68,2.6-7.74,1.07-1.35-.65-1.93-1.3-2-2.51-.18-.88-.47-1.59-.58-2.17a6.82,6.82,0,0,1-.38-3.45l.15-1.56c.36-2,.48-3,.1-4.14-.15,0-.24-.42.09-1.09a59.1,59.1,0,0,0,2.19-6.7c.92-2.33,1.68-3.09,3.81-4.73a4,4,0,0,1,1.35-1.65,3.11,3.11,0,0,0,1.3-1.17,3.68,3.68,0,0,1,2.91-1.49c4.09-.2,6.62,1,8.7,3.78.06.29.41.53.62.79a3,3,0,0,1,.76,1.54,2,2,0,0,1-1,1.88,1.46,1.46,0,0,1-2-.83,4.25,4.25,0,0,0-1-1.18c-.35-.24-.53-.35-.62-.8-.9-1.5-2-1.88-4.29-1.59a6.9,6.9,0,0,0-4.89,3.1,7,7,0,0,1-1.18,1.77,8.15,8.15,0,0,0-1.59,2.76,4.62,4.62,0,0,1-.53,1.17c-.77,1.53-1,2-.8,2.91a2.92,2.92,0,0,1-.07,1.24,8.66,8.66,0,0,0-.75,6.26c.12.59.09,1.21.24,1.95a9.43,9.43,0,0,0,.61,1.56c.06.29.27.56.35,1,.41,1.29,2.82,1.89,4,1a10.67,10.67,0,0,0,3.3-3.41,9.57,9.57,0,0,1,1.71-2.94,8.47,8.47,0,0,0,2.19-4.41l.3-1.58a7.4,7.4,0,0,0,.44-1.62,3.93,3.93,0,0,1,1.89-2.06c.27-.2,1.12.24,1.2.68.44,1.45.74,2.15.56,2.8a9.18,9.18,0,0,0,2.72,7.57,6.18,6.18,0,0,0,5.14,2,16,16,0,0,0,2.68-1.15,12.86,12.86,0,0,0,7.48-5.45l1.42-2.12a9.68,9.68,0,0,0,2.27-3.2c.18-.64.44-.85.71-1.82a15.21,15.21,0,0,1,1.12-2.82,2.61,2.61,0,0,1,.45-.85,3.26,3.26,0,0,1,.44-.86c.21-.5.83-.46,1.68,0A1.33,1.33,0,0,1,180.38,161.51Z"/><path class="cls-1" d="M185.38,175.2a7,7,0,0,0-1.76-.42c-.15,0-.33-.09-.71-.47a1.49,1.49,0,0,0-1.17-.53c-.8-.15-2.64-3.3-3-6a30.24,30.24,0,0,1-.54-11.21,7.47,7.47,0,0,1,.27-1.73l.36-2.06c-.17-.88-.11-1.35-.17-1.65a10.67,10.67,0,0,0,.92-4.61,18.57,18.57,0,0,1,.36-2.83c.06-1.23-.91-1.5-2.5-1-.3.06-.44.09-.62,0a6.4,6.4,0,0,0-2.77.7l-1.17.23a6.3,6.3,0,0,1-2.36.47c-.29,0-.67-.33-.79-.92-.23-.41-.35-.23.06-.47l.27-.2a7.12,7.12,0,0,1,4-1.55,7.82,7.82,0,0,0,2.91-.73,5.06,5.06,0,0,1,2-.71,2.83,2.83,0,0,0,2.06-2.7,3.81,3.81,0,0,0,.39-2.67,2.42,2.42,0,0,1,.06-2c.56-1,.62-1.5.33-2.21L183,124.6c.21-1.27.77-1.53,1.79-1l.71.47a1.37,1.37,0,0,1,.64,1l.27,1.32a3.83,3.83,0,0,1,.14,1.5,22.86,22.86,0,0,0-.36,3.59,16.35,16.35,0,0,1-.36,3.59l-.21.5c-.53,1.17-.56,1.79.41,2.06a7.16,7.16,0,0,0,3.5-.85c3.89-2,6.74-2.25,10.74-2.89a.89.89,0,0,1,.62,0l.38.39c.33.08.18.11.18.11a2.21,2.21,0,0,1-.24,1.12,4.27,4.27,0,0,1-1.26.56c-.89.17-1.59.46-2.18.58a24.61,24.61,0,0,1-3.48,1,2.35,2.35,0,0,0-1,.35l-.29.06c-1.18.24-2.18.59-3.06.76a18.25,18.25,0,0,1-2.92.73c-2,.55-2.53,1.11-2.5,2.79a8.17,8.17,0,0,1-.68,2.73,6,6,0,0,0-.54,4.24,2.61,2.61,0,0,1-.36,1.29c-.21.5-.26,1-.38,1.15-2.23,8.85-1.74,12.11,0,17.59.17.88.53,1.12,1.79,2.09,3.35,2.24,6.73,2.34,10.56,0,2.74-1.61,5.21-3,7.13-5.69a3.57,3.57,0,0,1,1.5-1.67,5.42,5.42,0,0,0,1.74-1.26,17.64,17.64,0,0,0,3-3.64c.36-.53.56-1,1.24-2.24a13.08,13.08,0,0,1,1.92-3.43c.27-.21.38-.39.88-.18l.53.35c.71.48.62.8.59.65-.06.47-.21.5-.27,1a5.88,5.88,0,0,1-.65,2.12,14.92,14.92,0,0,0-2.12,3.17c-.56,1-1.24,2.24-1.71,2.94A25.37,25.37,0,0,1,204,168.3c-.67.44-1.44,1.2-2.23,1.82a25.9,25.9,0,0,1-5.93,4.07C190.58,176.77,187.5,175.85,185.38,175.2Z"/><path class="cls-1" d="M254,162.84c-1.24-.06-1.56-.15-1.94-.53a20.75,20.75,0,0,1-4.32-4l-1-5c-1.22-4.65-.77-9.33-.17-14a3.92,3.92,0,0,1,.62-2.27,1.35,1.35,0,0,1,2.26-.14c.15,0,.38.38.47.82l-.31,10a25.47,25.47,0,0,0,1.21,8.47,5.16,5.16,0,0,0,4.29,3.89c.29-.06.29-.06,1.09.09a2,2,0,0,0,.82.3,6.09,6.09,0,0,0,2.38-.32c2-.7,3.45-1.9,5.46-4.14a25,25,0,0,0,4.48-5.93,12.86,12.86,0,0,1,1.33-2.55,25,25,0,0,0,2.24-4.88c.24-1.12.48-1.47,1.72-2.18.26-.2.76,0,1,.42a1.79,1.79,0,0,1,0,1.38,6.15,6.15,0,0,0-.29,1.59,18.15,18.15,0,0,0-1.1,3c-.24.35-.33.67-.77,1.52A40.8,40.8,0,0,1,270,154a21,21,0,0,1-4.57,5.5c-3.74,2.72-6.72,3.92-10,3.36C255,162.82,254.51,162.9,254,162.84Zm-6-48.34a2.35,2.35,0,0,1,.3-2.35,6.87,6.87,0,0,0,1.18-1l.65-.59a1.36,1.36,0,0,1,2.12.65c.7,2-.54,4.24-2.19,4.41A2.11,2.11,0,0,1,248,114.5Z"/><path class="cls-1" d="M281.67,158.76c-.59.11-.91,0-1.36.11-1.82.06-2.85-.51-4.29-2.36l-.11-.59c-.06-.3-.24-.41-.27-.56-.29-1.47-.08-2,.36-2.06,1.06-.82,1.68-.79,2.36-.46a5.24,5.24,0,0,0,1.46,1.23c.36.24.56.51.89.59a3.21,3.21,0,0,0,3.91-.31,9.84,9.84,0,0,0,3.25-6.76,7.3,7.3,0,0,0-.32-2.38c-1.38-2.33-2.78-4.8-4-7.16a24.94,24.94,0,0,1-1.67-3,.47.47,0,0,0-.21-.27c-.82-1.06-1.08-2.38-1.52-2.3-.27.21-.86,1.86-1.22,2.38l-.2.5a11.22,11.22,0,0,0-.65,1.36,4.47,4.47,0,0,1-.57,1.79,12.59,12.59,0,0,0-1,2.79,11.91,11.91,0,0,1-1.19,3.29c-.85,1.09-1,1.12-2.64.53l0-.15a20.45,20.45,0,0,1,1.66-5.53,34,34,0,0,0,2.16-6.08,12.74,12.74,0,0,1,1.45-4.26c.44-.86,0-1.68-.5-2.51a6.06,6.06,0,0,1,.13-3.23c.62-1.5,3-2.44,4.59-2.29.15,0,.76.77.59.65a5.87,5.87,0,0,0-.42,2.53,13.29,13.29,0,0,1-.27,2.5c-.68,2-.48,3,1.05,5.3a12.9,12.9,0,0,1,1.17,2.06,14.92,14.92,0,0,0,2.41,2.89,8.45,8.45,0,0,1,2,2.5,17.37,17.37,0,0,1,2,12.16l-.21.5,0,.14c-.39,1.15,1.41,1.71,2.08,1.27.71-.29,1.12-.52,2.12-.88,1.83-.81,3.95-1.69,5.33-3.19l3.48-3.29.12-.17a2.12,2.12,0,0,1,.47-.71,4,4,0,0,0,1.33-1.79c1.65-1.7,3.92-5.67,5.37-9.17a1.3,1.3,0,0,1,2.21-.43l.12.59-.06.47a2.42,2.42,0,0,1-.48,1.47,5.55,5.55,0,0,1-1.44,2.73,10.52,10.52,0,0,0-1.66,3.23c.18.12-.86,1.85-1.15,1.91a15.65,15.65,0,0,1-3.3,4.17,30.29,30.29,0,0,0-2.24,2.58c-.92,1.56-1.71,2.18-3.81,3.2a29.13,29.13,0,0,0-3,1.67c-1.06.82-2.09,1-4.56,1.67a22.84,22.84,0,0,0-3.21.79A52.4,52.4,0,0,0,281.67,158.76Z"/><path class="cls-1" d="M392,119.66a.62.62,0,0,0-.06.47l-.11.18c-.27,1-.33,1.44-.48,1.47l-3.75,8.08a10.8,10.8,0,0,1-3.16,4.14,1.53,1.53,0,0,1-.67.44,13.71,13.71,0,0,1-5.28,3.49,18,18,0,0,0-2.41.94l-1.47.29a3.15,3.15,0,0,0-1.06.05c-3.94.17-5.53-.89-8.58-4a4.71,4.71,0,0,0-.94-.88c-.21-.27-1.41-.18-2,.08a19.4,19.4,0,0,1-1.86,2.2l-1.74,2a2.09,2.09,0,0,0-.65.59,5.66,5.66,0,0,1-1.56,1.38c-2.45,2.32-4.68,2.61-7.74,1.07-1.35-.65-1.94-1.3-2-2.51-.17-.88-.46-1.59-.58-2.17a6.81,6.81,0,0,1-.37-3.45l.15-1.56c.35-2.05.47-3,.09-4.14-.14,0-.23-.42.09-1.09a61.17,61.17,0,0,0,2.2-6.7c.91-2.32,1.68-3.09,3.8-4.73a4,4,0,0,1,1.36-1.65,3,3,0,0,0,1.29-1.17,3.7,3.7,0,0,1,2.92-1.49c4.09-.2,6.62,1,8.7,3.78.06.29.41.53.61.8a3.05,3.05,0,0,1,.77,1.53,2,2,0,0,1-1,1.88,1.46,1.46,0,0,1-2-.83,4.18,4.18,0,0,0-1-1.18,1,1,0,0,1-.62-.79c-.91-1.51-2.06-1.89-4.29-1.6a6.84,6.84,0,0,0-4.89,3.11,7.41,7.41,0,0,1-1.18,1.76,8.33,8.33,0,0,0-1.6,2.76,4.19,4.19,0,0,1-.53,1.18c-.77,1.52-1,2-.8,2.91a2.75,2.75,0,0,1-.06,1.23,8.63,8.63,0,0,0-.75,6.27c.12.58.09,1.2.23,1.94a9.65,9.65,0,0,0,.62,1.56c.05.29.26.56.35,1,.41,1.29,2.82,1.89,4,1a10.78,10.78,0,0,0,3.3-3.41,9.38,9.38,0,0,1,1.71-2.94,8.62,8.62,0,0,0,2.19-4.4l.29-1.59a6.92,6.92,0,0,0,.45-1.62,3.85,3.85,0,0,1,1.88-2c.27-.21,1.12.23,1.21.67.44,1.45.73,2.15.55,2.8a9.25,9.25,0,0,0,2.72,7.57,6.21,6.21,0,0,0,5.15,2,16.87,16.87,0,0,0,2.68-1.14,12.93,12.93,0,0,0,7.48-5.46l1.41-2.11a9.74,9.74,0,0,0,2.28-3.21c.17-.64.44-.85.71-1.82a14.54,14.54,0,0,1,1.12-2.82,2.77,2.77,0,0,1,.44-.85,3,3,0,0,1,.45-.85c.2-.5.82-.47,1.67,0A1.32,1.32,0,0,1,392,119.66Z"/><path class="cls-1" d="M419.66,158.37l.06-2,1.25-6.82.21-.5a2.72,2.72,0,0,0,.3-1.59,15.15,15.15,0,0,1,.78-7.64,2.56,2.56,0,0,0-.08-2c-.35-1-.29-1.48-.06-1.83a3.63,3.63,0,0,0,.33-1.44l.24-1.12.2-.5a2.71,2.71,0,0,0,.3-1.58,21.2,21.2,0,0,1,.31-7.71,27.37,27.37,0,0,0,.57-4.85,10.88,10.88,0,0,1,.42-3.3,12.85,12.85,0,0,0,.16-5.38,22.82,22.82,0,0,0,.34-8.32,7.74,7.74,0,0,1,.54-3.47,20.67,20.67,0,0,0,.68-2.74c0-.61.74-.91,1.35-.88a1.75,1.75,0,0,1,1.82,1.48A18.82,18.82,0,0,1,429,105a7.61,7.61,0,0,0,0,1.68,17.53,17.53,0,0,1-.54,3.47,17.84,17.84,0,0,0-.89,4l-.51,5.14a29.84,29.84,0,0,1-.33,4.51l0,.14c0,.91,0,1.68.79,1.68a2.26,2.26,0,0,0,2.06-1.17l.35-.53c0-.15-.06-.3.09-.32.18-.65.41-1,.8-2.15l.77-2.29a32,32,0,0,1,2-3.91c.09-.32.23-.35.32-.68.48-.7.83-1.23.74-1.67.36-1.3,1.07-2.35,2.51-5.09a37.25,37.25,0,0,0,2-3.61c1.74-3.55,3.66-5.46,6.37-6.46.85-1.08,1.41-1.35,3.77-1l1.23.06q1.86.09,3.7,2.48a10.76,10.76,0,0,1,2,7c-.92,5.38-3.4,9.08-8.26,12.34a1.3,1.3,0,0,0-.24,1.88c.05.29,1,.41,1.47.47,3.61-.25,7.23-.51,10.65-2.56a19.88,19.88,0,0,1,3.89-2.76c3.21-2.32,6.93-6.72,8-9.54a9.43,9.43,0,0,1,1.48-2.59,16,16,0,0,0,1.32-1.79,1.71,1.71,0,0,1,1.54-.76c.44-.09,1.26,1,1,1.79-.65,2.89-1.92,4.21-3.33,6.32l-3.52,4.67c.06.3-.08.32-.32.68a45,45,0,0,1-11.73,8,20.81,20.81,0,0,1-4.18,1.29,5.91,5.91,0,0,1-1.44.44c-2.65.52-5.47.16-8.26,0-2.18-.18-2.86-.51-3.8-1.39s-1.49-1.39-1.32-2a2.84,2.84,0,0,1,1.92-1.91l.29-.06a.15.15,0,0,0,.18.12c1.15.38,5.39-1.37,6-2.72a10.27,10.27,0,0,1,1.8-2.5c1.47-1.82,3.6-4.23,3.93-7.2.15-1.56-.91-3.8-2.35-5.65,0-.15-.7-.47-1.17-.53a6.56,6.56,0,0,0-4.36,1.16,15.41,15.41,0,0,0-5.13,6.52c-1.51,3.2-3.78,7.94-4.52,11.14-1,3.56-2.49,6.76-5,11.85a16.28,16.28,0,0,0-1.39,3.79,9.43,9.43,0,0,1-1.54,4.58,4.24,4.24,0,0,0-.83,2c0,2.91-.92,5.38-1.61,8.12a42.5,42.5,0,0,0-1.66,6.29,24.73,24.73,0,0,1-.91,3.09,1.75,1.75,0,0,1-2.45.78A1.85,1.85,0,0,1,419.66,158.37Z"/><path class="cls-1" d="M495.3,112.53a3.9,3.9,0,0,1-3.73-1.86c-1.26-1.74-2.67-3.45-2.34-5.66l.83-5.82a2.27,2.27,0,0,1,.42-1c.82-1.23,1-1.73.3-2.35-.44-.68-1.71-.89-2.65-1a2.93,2.93,0,0,1-.94-.12c-.29.06-.82-.29-1.5-.62-1.91-1.15-3.17-1.36-4.26-.68a5.29,5.29,0,0,0-1.83,3.88l-2.49,6c-.09.33-.23.35-.32.68a10.55,10.55,0,0,1-1.45,2.73l-.59.12c-.44.08-1.56-.92-1.44-1.09.33-.68.39-1.15.8-2.15a6.92,6.92,0,0,1,1.1-3,25.39,25.39,0,0,0,2.07-5.76c.26-1,.5-2.09.8-2.91.5-1.32.24-2.65-.79-4.74a2.86,2.86,0,0,1-.11-2.88L478.25,82a4.92,4.92,0,0,0,.26-1,3.69,3.69,0,0,1,4.21-1.91,1.86,1.86,0,0,1,1.38,2.33,18.26,18.26,0,0,0-1.72,5.23c-.53,1.18-.24,1.89.76,3.06,1.41,1.71,4.58,3.07,7.82,3.2a26.28,26.28,0,0,1,2.68.39,3.36,3.36,0,0,0,.94.12c.32.08.85,1.2.79,1.67a11,11,0,0,0-1,2,18.32,18.32,0,0,1-.83,2,9.14,9.14,0,0,0-.1,8c1.05,3,2.43,3.8,5.55,3.34.88-.18,1-.21,1.36-.12a15.25,15.25,0,0,0,5.88-2.69c.3-.82.68-1.21,1-1.26a6.86,6.86,0,0,0,2.33-2.15c.5-.55.7-1,1.26-1.32,1.27-1.32,2.25-2.58,2.42-4a6.69,6.69,0,0,1,.8-1.38,3.88,3.88,0,0,0,.68-1.21c.65-2.11,1.21-3.14,1.66-3.23.29-.06.82.3,1.41.94.05.3-.16,2.33-.45,2.39l-.41,1a5.54,5.54,0,0,1-.74,1.68,1.8,1.8,0,0,1-.59.88,3.51,3.51,0,0,0-1.13,2.06,7.74,7.74,0,0,1-1.71,2.94,12.87,12.87,0,0,1-1.83,1.58,9.32,9.32,0,0,0-2.53,2.64c-1.92,1.91-3,2-5.45,2.61C500.48,113.19,498.15,113.8,495.3,112.53Z"/><path class="cls-1" d="M517.41,105.25c-1.7-2.42-2.32-4-2.34-5.65-.06-1.06-.06-1.83-.2-3.33a14.25,14.25,0,0,1,.1-5.67,11.66,11.66,0,0,1,.36-2.06,11,11,0,0,1,.35-2.06,13.33,13.33,0,0,1,2.4-5.67c1.83-2.35,3.45-3.44,5.68-3.73a3.4,3.4,0,0,1,2.74.69c1.94,1.29,2.49,2.56,1.78,4.38a10,10,0,0,0-.21,3.56c.26,3.62-1.57,6-3.67,8.52a10.48,10.48,0,0,1-2,1.47c-3.24,2.17-4.27,1.61-2.25,7.17.91,1.51,2.32,2.45,4.73,3,4.79,1,7.06.14,10-2l1.35-.87a16.38,16.38,0,0,1,2.33-1.38,7.27,7.27,0,0,0,1.32-1c1-1.11,1.62-1.85,3-3.2a20.62,20.62,0,0,0,4.81-5.84l1.65-3.24a13.37,13.37,0,0,1,1.51-2.43c.38-.38.67-.44,1.38,0,.29-.06.59.65.44,1.44a2.42,2.42,0,0,0-.27,1c-.15.8-.21,1.27-.35,1.3a28.39,28.39,0,0,1-2,3.61,24.67,24.67,0,0,1-1.51,2.44,15.17,15.17,0,0,1-4.6,5.34c-1.06.82-2.3,1.53-2.86,2.55-3.62,3.32-6,3.93-10,5.19l-.74.15C525.72,110.18,520.2,108.52,517.41,105.25Zm3.5-11.7a6.26,6.26,0,0,0,2.86-4.08,9.14,9.14,0,0,1,.62-2.27c.89-1.7,1-2.49.83-3.52l-.14-.74c-.32-1.62-1.12-2.53-2.29-2.3a2.12,2.12,0,0,0-1.89,1.29c-.38.38-.35.53-.35.53a7.35,7.35,0,0,0-1.51,3.2c-.18.65-.06.47-.18.65a8,8,0,0,0-.54,4.23A13.88,13.88,0,0,1,518.2,93a2.72,2.72,0,0,0,.35,1C518.7,94.75,520.55,94.08,520.91,93.55Z"/><path class="cls-1" d="M557.48,101.45c-2.67-.39-4.43-1.57-6.28-4-1.24-1.59-2.05-5-2.08-7.39a18,18,0,0,1,1-6c.89-2.47,1.78-5.7,3.6-7.29a15.92,15.92,0,0,0,2.75-3.14c1.44-2,2.88-2.4,6.68-2.54a2,2,0,0,1,1.06.71A6,6,0,0,1,566,75.76l.55,2.8c.12.59-.77,1.52-1.47,1.82a2.62,2.62,0,0,1-2.21-1.1l-.14-.73a4,4,0,0,0-.17-3.18c-.26-.56-1.09-.85-1.88-1a4.48,4.48,0,0,0-3.62,1.78c-2.72,4.06-4,8.44-4.21,14.29a9.63,9.63,0,0,0,1,3.77c.09.44.32.85.38,1.15a4.9,4.9,0,0,0,3.9,3.51c3.15.44,7.88,1.95,13.72-4.09.12-.18.27-.21,1.24-.71,1.68-.79,4.45-2.25,5.57-4.31a6,6,0,0,1,.82-1.23A6.75,6.75,0,0,0,581,86.41a25.48,25.48,0,0,0,2.75-4.67,10.9,10.9,0,0,1,.76-1.53,2.69,2.69,0,0,1,1.15-1.14c.3-.06.44-.09,1.21.68a4.11,4.11,0,0,1-.12,2.47l-3.55,6c-2.8,5.14-6.43,8.46-13.52,11.24a4.33,4.33,0,0,0-.8.61c-.29.06-.68.44-.82.47C565.66,101.82,560.19,102,557.48,101.45Z"/><path class="cls-1" d="M592.32,95.94c-1.23-.06-1.55-.15-1.94-.54a20.92,20.92,0,0,1-4.31-4l-1-5c-1.23-4.65-.77-9.32-.18-14a4,4,0,0,1,.63-2.26,1.35,1.35,0,0,1,2.26-.15c.15,0,.38.39.47.83l-.32,10a25.74,25.74,0,0,0,1.22,8.47,5.18,5.18,0,0,0,4.29,3.9c.29-.06.29-.06,1.09.09a2.08,2.08,0,0,0,.82.29,5.91,5.91,0,0,0,2.38-.32c2-.7,3.45-1.9,5.45-4.13a25.49,25.49,0,0,0,4.49-5.93A12.94,12.94,0,0,1,609,80.56a25.31,25.31,0,0,0,2.24-4.88c.24-1.12.48-1.47,1.71-2.17.27-.21.77,0,1,.41.15.74.18.89,0,1.38a6.18,6.18,0,0,0-.3,1.59,19,19,0,0,0-1.09,3c-.24.35-.33.68-.77,1.53a41.38,41.38,0,0,1-3.45,5.73,21,21,0,0,1-4.57,5.49c-3.75,2.73-6.72,3.93-10,3.36C593.24,95.91,592.8,96,592.32,95.94Zm-6-48.35a2.35,2.35,0,0,1,.3-2.35,6.43,6.43,0,0,0,1.18-1l.65-.58a1.34,1.34,0,0,1,2.11.65c.7,2-.54,4.23-2.18,4.41A2.13,2.13,0,0,1,586.28,47.59Z"/><path class="cls-1" d="M619.13,92.32a28.05,28.05,0,0,0-2.85-1.27l-.5-.21-.53-.35a16.34,16.34,0,0,1-3.31-5.92v-2.3a1.12,1.12,0,0,1,0-.62,6.49,6.49,0,0,0,0-1.53,6.62,6.62,0,0,0-.53-1.11c-.44-.68-.67-1.09-.55-1.27a7.16,7.16,0,0,0,.62-3c.24-1.12.3-2.35.92-3.09a4.5,4.5,0,0,0,.71-2.58,6.21,6.21,0,0,0,.18-1.41,28.37,28.37,0,0,0,4.16-6c1.33-2.55,5.3-3.34,7.62-1.66,1.62,1.21,2.06,1.89,1.94,2.83-.33,2.21.34,3.3,2.67,4.21l1,.42a2.44,2.44,0,0,1,2,1.59c.21.27.3.71.5,1a7.55,7.55,0,0,1,1.14,4.21,2.75,2.75,0,0,0-.3,1.59c0,1.68.61,2.32,1.91,2.68a11.53,11.53,0,0,0,11.19-4.51l.5-.55c.38-.39.41-.24.38-.39a15.13,15.13,0,0,0,3.13-3.52,12,12,0,0,1,1.94-3.29.82.82,0,0,1,1.24.06c.53.36.85.45,1.2.68-.15,1.56-.11.94-1.27,2.85l-1.33,2.56-2.12,2.41-.5.55a1.93,1.93,0,0,0-.68.44c-.38.39-.79.62-1.56,1.38-2.5,2-5,4-10.48,4.22a7.68,7.68,0,0,1-3.06,0c-1.76-.42-2.62.67-3.27,3.55-.68,2-1.83,3.12-4.84,4.93a5.52,5.52,0,0,1-1.53.77,16.1,16.1,0,0,0-2.36,1.23A3.21,3.21,0,0,1,619.13,92.32Zm6.07-4.87,1.59-2c3.07-3,2.87-4.08-1.54-5.5a6.31,6.31,0,0,1-3.16-9c.21-.5.35-.53.68-1.21a8.38,8.38,0,0,0,1-1.26,4.2,4.2,0,0,0,.83-2c0-2.14-.47-2.35-1.79-3.62-.44-.68-1.35-.65-2.32-.15a4.94,4.94,0,0,0-1.71,2.17c-2.19,4.41-3.28,7.38-3.76,11.91l-.15,1.56c-.36,2.82-.28,4,.6,5.38l.24,1.18a7.13,7.13,0,0,0,.49,2.5,3.37,3.37,0,0,0,2.32,1.68,5.35,5.35,0,0,0,1.5-.14,2.93,2.93,0,0,1,.94.12A4.58,4.58,0,0,0,625.2,87.45Zm5.41-11.32c.21-.5.15-.79,0-1.67l-.17-.88c-.09-.45-.35-1-.5-1.74s-.38-1.15-.47-1.59-.93-.89-1.52-.77c-.89.18-1.59.47-1.68.79a4.79,4.79,0,0,0-1,3.26c.09.45,0,.92.09,1.21-.54,1.94.64,3.24,2.81,3.42C629.52,78.34,630.84,77.31,630.61,76.13Z"/><path class="cls-1" d="M700.83,58.58c-.71,1.82-1.39,3.79-2,5.29-2.27,4.73-4.69,8-9,10.8a6.38,6.38,0,0,1-3.09,1.38,12.36,12.36,0,0,0-2.18.58c-2,.7-4-.27-6.68-1.28-.14,0-.67-.32-1.26-1-1.44-1.86-3-3.68-3.4-6.36a1.18,1.18,0,0,0-2.2-.33,9.81,9.81,0,0,0-1.42,2.12,24.48,24.48,0,0,1-2.72,4.81,16.75,16.75,0,0,1-1.29,1.94c-1.86,3-5.13,4.23-8.49,4.28a1.7,1.7,0,0,1-1.32-.5,24.07,24.07,0,0,1-2.46-2.42c-.06-.3-.36-1-.24-1.18-1.34-4.47-.72-7.5-.09-11.29a105.58,105.58,0,0,0,1.23-11.56c0-1.39,1.21-2.38,2.42-1.7a4,4,0,0,1,1.2.68A.15.15,0,0,1,658,53c.17.12.23.42,0,.92a1.9,1.9,0,0,1-.32.67,11.45,11.45,0,0,0-.6,5.47,6.07,6.07,0,0,1-.54,2.71A13.06,13.06,0,0,0,656,65.3a15.07,15.07,0,0,1-.18,2.18c-.15,1.56-.24,3.41-.25,4.94s.88,2.89,2.73,4.51c.35.24,1.38,0,1.53,0,2.27-1.67,4.27-3.14,5.27-5a38.83,38.83,0,0,0,2.08-5.76c.79-2.14,1.56-4.44,2.42-6.29a5.75,5.75,0,0,0,.92-3.08c0-.77,0-.77,1.33-1.8a1.7,1.7,0,0,1,2.82,1.13,20.54,20.54,0,0,1,.4,4.35,26.56,26.56,0,0,0,.4,5.12,1.86,1.86,0,0,0,0,.91c.23,2,1.29,3.42,3.19,5.33,2.79,2.51,5.41,2.61,8.71.73,1.53-.76,2.39-1.08,3.36-2.35.12-.17.26-.2.68-.44a6.18,6.18,0,0,0,1.5-1.67c2.33-2.14,3.22-4.61,4.19-7.4l1.31-3.47c.53-.41.79-.62,1.32-.26A1.8,1.8,0,0,1,700.83,58.58Z"/><path class="cls-1" d="M706.48,74.74c-.59.11-.91,0-1.36.11-1.82.06-2.85-.5-4.29-2.36l-.11-.59c-.06-.29-.24-.41-.27-.56-.29-1.47-.08-2,.36-2.06,1.06-.82,1.68-.79,2.36-.46a5.43,5.43,0,0,0,1.46,1.24c.36.23.56.5.88.59a3.24,3.24,0,0,0,3.92-.32,9.84,9.84,0,0,0,3.25-6.76,7.35,7.35,0,0,0-.32-2.38c-1.38-2.33-2.78-4.8-4-7.16a24.94,24.94,0,0,1-1.67-3,.47.47,0,0,0-.21-.27c-.82-1.06-1.08-2.38-1.52-2.29-.27.2-.86,1.85-1.22,2.38l-.2.5a10.25,10.25,0,0,0-.65,1.35,4.47,4.47,0,0,1-.57,1.79,12.59,12.59,0,0,0-1,2.79,12.09,12.09,0,0,1-1.19,3.3c-.85,1.08-1,1.11-2.64.52l0-.15a20.45,20.45,0,0,1,1.66-5.53,33.75,33.75,0,0,0,2.16-6.08,12.82,12.82,0,0,1,1.45-4.26c.44-.85,0-1.68-.5-2.5a6.09,6.09,0,0,1,.13-3.24c.62-1.5,3-2.43,4.59-2.28.15,0,.76.76.59.65a5.81,5.81,0,0,0-.42,2.52,13.21,13.21,0,0,1-.27,2.5c-.68,2-.48,3,1,5.3a13.36,13.36,0,0,1,1.17,2.06A14.35,14.35,0,0,0,711.5,53c1.35,1.42,1.73,1.8,2,2.51a17.28,17.28,0,0,1,1.94,12.15l-.2.5,0,.15c-.39,1.14,1.4,1.7,2.08,1.26.71-.29,1.12-.52,2.12-.87,1.83-.82,4-1.7,5.33-3.2l3.48-3.29.12-.17a2.12,2.12,0,0,1,.47-.71,4,4,0,0,0,1.33-1.79c1.65-1.7,3.92-5.67,5.37-9.16a1.3,1.3,0,0,1,2.21-.44l.12.59-.06.47a2.4,2.4,0,0,1-.48,1.47,5.5,5.5,0,0,1-1.45,2.73,10.84,10.84,0,0,0-1.65,3.23c.18.12-.86,1.85-1.15,1.91a15.5,15.5,0,0,1-3.3,4.17,30.46,30.46,0,0,0-2.24,2.59c-.92,1.55-1.71,2.17-3.81,3.19a29.13,29.13,0,0,0-3,1.67c-1.06.83-2.09,1-4.56,1.67a22.84,22.84,0,0,0-3.21.79A54.41,54.41,0,0,0,706.48,74.74Z"/><path class="cls-1" d="M778.23,58a7,7,0,0,0-1.76-.42c-.15,0-.33-.09-.71-.47a1.46,1.46,0,0,0-1.17-.53c-.8-.15-2.64-3.3-3-6A30.25,30.25,0,0,1,771,39.34a8.08,8.08,0,0,1,.27-1.73l.36-2.06c-.17-.89-.11-1.36-.17-1.65a10.69,10.69,0,0,0,.92-4.62,18.6,18.6,0,0,1,.36-2.82c.06-1.24-.91-1.5-2.5-1-.29.05-.44.08-.62,0a6.49,6.49,0,0,0-2.76.7l-1.18.24a6.24,6.24,0,0,1-2.36.46c-.29.06-.67-.32-.79-.91-.23-.41-.35-.24.06-.47l.27-.21a7.27,7.27,0,0,1,4-1.55,7.43,7.43,0,0,0,2.91-.73,5.11,5.11,0,0,1,2-.7,2.83,2.83,0,0,0,2.06-2.7,3.84,3.84,0,0,0,.39-2.68,2.42,2.42,0,0,1,.06-2c.56-1,.62-1.5.33-2.2l1.25-5.29c.21-1.27.77-1.53,1.79-1l.71.47a1.35,1.35,0,0,1,.64.94l.27,1.33a3.82,3.82,0,0,1,.14,1.5,22.62,22.62,0,0,0-.36,3.59,16.21,16.21,0,0,1-.36,3.58l-.21.5c-.53,1.18-.56,1.8.41,2.06a7.05,7.05,0,0,0,3.5-.84c3.89-2,6.74-2.25,10.75-2.89a.86.86,0,0,1,.61,0l.38.38c.33.09.18.12.18.12a2.21,2.21,0,0,1-.24,1.12,4.55,4.55,0,0,1-1.26.56c-.89.17-1.59.46-2.18.58a24.84,24.84,0,0,1-3.47,1,2.35,2.35,0,0,0-1,.35l-.29.06c-1.18.23-2.18.58-3.06.76a19.23,19.23,0,0,1-2.91.73c-2,.55-2.54,1.11-2.51,2.79a8.24,8.24,0,0,1-.68,2.73,6,6,0,0,0-.54,4.24,2.66,2.66,0,0,1-.36,1.29c-.21.5-.26,1-.38,1.15-2.23,8.85-1.73,12.11,0,17.59.17.88.53,1.12,1.79,2.09,3.35,2.24,6.73,2.34,10.56,0,2.74-1.61,5.21-3,7.13-5.69a3.53,3.53,0,0,1,1.51-1.67,5.42,5.42,0,0,0,1.73-1.27A16.82,16.82,0,0,0,801.06,42c.36-.53.56-1,1.24-2.23a13.63,13.63,0,0,1,1.92-3.44c.27-.2.39-.38.88-.17l.53.35c.71.48.62.8.59.65-.06.47-.21.5-.27,1a5.69,5.69,0,0,1-.65,2.12,14.92,14.92,0,0,0-2.12,3.17c-.56,1-1.24,2.23-1.71,2.94A25.27,25.27,0,0,1,796.9,51c-.68.44-1.45,1.21-2.24,1.82a25.94,25.94,0,0,1-5.93,4.08C783.43,59.52,780.35,58.6,778.23,58Z"/><path class="cls-1" d="M811.57,52.58c-1.23-.07-1.56-.15-1.94-.54a20.48,20.48,0,0,1-4.31-4l-1-5c-1.23-4.65-.78-9.33-.18-14a4,4,0,0,1,.62-2.27,1.36,1.36,0,0,1,2.27-.14c.15,0,.38.39.47.83l-.32,10a25.74,25.74,0,0,0,1.22,8.47,5.14,5.14,0,0,0,4.29,3.89c.29,0,.29,0,1.08.09a2,2,0,0,0,.83.3,6.12,6.12,0,0,0,2.38-.32c2-.7,3.45-1.9,5.45-4.13a25.33,25.33,0,0,0,4.49-5.94,12.35,12.35,0,0,1,1.33-2.55,26.25,26.25,0,0,0,2.24-4.88c.24-1.12.47-1.47,1.71-2.17.27-.21.77,0,1,.41.15.74.18.88,0,1.38a6.18,6.18,0,0,0-.3,1.59,18,18,0,0,0-1.09,3c-.24.35-.33.68-.77,1.53a40.6,40.6,0,0,1-3.46,5.73A20.79,20.79,0,0,1,823,49.25c-3.74,2.72-6.71,3.92-10,3.36C812.48,52.55,812,52.64,811.57,52.58Zm-6-48.35a2.33,2.33,0,0,1,.3-2.35,6.87,6.87,0,0,0,1.18-1l.64-.59a1.35,1.35,0,0,1,2.12.66c.7,2-.54,4.23-2.19,4.4A2.09,2.09,0,0,1,805.53,4.23Z"/><path class="cls-1" d="M831.05,49a1.29,1.29,0,0,1-.7-1.24,21.28,21.28,0,0,0,.1-4.91,21.87,21.87,0,0,1,.75-7,4.15,4.15,0,0,1-.09-1.21,2.71,2.71,0,0,0,.07-1.23c-.33-.85-.26-2.09.3-4.65a13.72,13.72,0,0,0,.3-4.65,4.69,4.69,0,0,1,1-2.64c.06-.47.32-.68,1.09-.67a1.61,1.61,0,0,1,1.41.94,7.65,7.65,0,0,0,.29.71c.5,1,.44,1.44.32,1.61a13.76,13.76,0,0,1-.44,1.62c-1,2.18-1,3.26-.39,4.21,0,0-.39,2.67-.51,2.85A7.53,7.53,0,0,0,834,37c.2,1,.38,1.15,1.65,1.36a18,18,0,0,0,2.18-2.88c.24-.35.21-.5.56-1a3.41,3.41,0,0,0,.91-1.55,53.38,53.38,0,0,1,6.3-12.26,4.58,4.58,0,0,1,5.8-1.6c1,.27,1.55.91,1.26,1.74a54.5,54.5,0,0,0-.52,6.67,34.41,34.41,0,0,1-.15,3.86c-.3.82,1.38.79,1.56.15,1.59-1.24,2.88-3.17,5.13-7.29l1.42-2.88a22,22,0,0,1,4.69-4.9l3-2.73c.62-.73,1.09-.67,2.27-.14.67.32.73.62.76.76a5.45,5.45,0,0,1,0,4,50.3,50.3,0,0,0-3.06,13.14,23.32,23.32,0,0,0,0,3.21c.08,1.2.87,2.12,2.55,2.85a5.77,5.77,0,0,0,5.36-.75,21.3,21.3,0,0,0,6.13-5.34,16,16,0,0,1,2.68-2.67,11.92,11.92,0,0,0,4.19-5.88,12.07,12.07,0,0,1,1.36-2.4c.26-.21.47-.71.73-.91.83-1.24,1.09-1.44,1.48-1.06s1.11,1.77.85,2a6.67,6.67,0,0,0-.39,1.15l-.41,1a25.68,25.68,0,0,1-1.63,2.61,47.33,47.33,0,0,1-3.8,5.49c-3.1,3.68-5.22,6.08-9.67,8.34a17,17,0,0,1-6.56,1.6c-2.24.29-3.47-.53-4.61-3.21a15.39,15.39,0,0,1-1.41-4,24.39,24.39,0,0,1,0-3.2l0-2.15.45-4.68,0-.14c-.06-.3-.41-.53-.91-.74l-.15,0a1.2,1.2,0,0,0-1,.35,14.87,14.87,0,0,0-1.92,3.44,25.87,25.87,0,0,1-1.63,3.37,12.82,12.82,0,0,1-1.18,1.77c-.82,1.23-1.8,2.49-2.48,3.7-.79,1.38-1.71,2.17-4.56,4a2.06,2.06,0,0,1-2.21.44c-.47-.06-1-.42-.91-.74a7,7,0,0,0-.2-1.8,7.69,7.69,0,0,1,.09-2.61c.56-2.56,1.16-8,1.46-10.38,0-.15,0-.15-.23-.42,0,0,0-.14-.5-.2a1.12,1.12,0,0,0-.62,0,1.68,1.68,0,0,0-1.15.38A128.71,128.71,0,0,0,840.29,37c-1.19,2.53-2.48,5.23-3.7,7.61-.85,1.85-1.36,3.17-2.68,4.2C833.14,49.53,832.41,49.68,831.05,49Z"/><path class="cls-1" d="M892.93,31c-1.7-2.41-2.32-4-2.34-5.65-.06-1.06-.06-1.83-.2-3.33a14.07,14.07,0,0,1,.1-5.67,12.4,12.4,0,0,1,.35-2.06,11,11,0,0,1,.36-2.06,13.33,13.33,0,0,1,2.4-5.67c1.83-2.35,3.45-3.44,5.68-3.73A3.4,3.4,0,0,1,902,3.5c1.94,1.3,2.49,2.56,1.78,4.38a9.55,9.55,0,0,0-.21,3.56c.26,3.62-1.57,6-3.67,8.53a10.56,10.56,0,0,1-2,1.46c-3.24,2.17-4.27,1.61-2.25,7.17.91,1.51,2.32,2.45,4.73,3,4.79,1,7.06.14,10-2l1.36-.88a16.38,16.38,0,0,1,2.33-1.38,7.27,7.27,0,0,0,1.32-1c1-1.11,1.62-1.85,3-3.2a20.62,20.62,0,0,0,4.81-5.84l1.65-3.23a13.13,13.13,0,0,1,1.5-2.44c.39-.38.68-.44,1.39,0,.29-.06.58.65.44,1.44a2.42,2.42,0,0,0-.27,1c-.15.8-.21,1.27-.36,1.3a27.16,27.16,0,0,1-2,3.61,23.56,23.56,0,0,1-1.51,2.44,15.27,15.27,0,0,1-4.6,5.34c-1.06.82-2.3,1.53-2.86,2.55-3.62,3.32-6,3.93-10,5.19l-.74.15C901.24,35.91,895.71,34.25,892.93,31Zm3.49-11.7a6.23,6.23,0,0,0,2.86-4.08,9.15,9.15,0,0,1,.63-2.27c.88-1.7,1-2.49.83-3.52l-.15-.74c-.32-1.62-1.11-2.53-2.29-2.3a2.12,2.12,0,0,0-1.88,1.29c-.38.38-.36.53-.36.53a7.46,7.46,0,0,0-1.5,3.2c-.18.65-.06.47-.18.65a8,8,0,0,0-.54,4.23,13.88,13.88,0,0,1-.12,2.48,2.55,2.55,0,0,0,.35,1C894.21,20.48,896.07,19.81,896.42,19.28Z"/><path class="cls-1" d="M270,375.9a7.45,7.45,0,0,0-1.82-.71l-2-1a28.41,28.41,0,0,0-2.81-3.42,7.05,7.05,0,0,1-2.17-3.24,2.71,2.71,0,0,0,.14-.79,15.19,15.19,0,0,1-1.21-7.71,9.43,9.43,0,0,1,.5-2.86,13.64,13.64,0,0,0,.6-3.17,5.84,5.84,0,0,1,.83-2.77,14.79,14.79,0,0,0,1-2,21.12,21.12,0,0,1,4-7.06c.76-.76,1.24-1.46,2.48-2.93a22.08,22.08,0,0,1,6.16-6,35.56,35.56,0,0,0,5.15-4.08,6.43,6.43,0,0,1,3.42-2c.88-.17,1.59-.47,1.68-.79a21.4,21.4,0,0,1,1.94-1.76,18.17,18.17,0,0,0,3.07-3.05c.21-.5.35-.53,1-1,1.21-.85,1.56-1.38,1.48-2.59a73.87,73.87,0,0,1,.34-7.56c-.68-1.09-.76-2.29-.32-4.67a9.07,9.07,0,0,0,.22-3.56,31.29,31.29,0,0,1,.16-6.15l.21-2a7.25,7.25,0,0,1,.8-2.91c.06-.47.2-.5,1.26-.56.3-.06.68.33.8.92,0,.76.14,1.5.23,2.7a16.85,16.85,0,0,1,.34,4.06,27,27,0,0,1-.36,3.59,27.63,27.63,0,0,0-.25,6.47,3.49,3.49,0,0,1-.36,2.06,4.72,4.72,0,0,0-.32,1.44,25.58,25.58,0,0,0,.05,4.12,1.51,1.51,0,0,0,1.88,1,19.14,19.14,0,0,0,4.24-2.52,6,6,0,0,1,1.74-1.26,20.77,20.77,0,0,0,3.27-2.79,4.71,4.71,0,0,1,1.26-1.32,22.16,22.16,0,0,1,2.6-2.34,13.34,13.34,0,0,0,3.57-3.61l1-1.74a35.84,35.84,0,0,0,2.63-5.26c.71-1.06.94-1.41,1.44-1.2a1.51,1.51,0,0,1,1.09,1.62c-.86,2.62-2,4.67-4.46,8.37a10.5,10.5,0,0,1-2.36,2.76,10.89,10.89,0,0,0-2.86,3.32,8.92,8.92,0,0,1-1.06.82c-.95.65-1.59,1.23-1.74,1.26a1.26,1.26,0,0,1-.65.59,3.18,3.18,0,0,0-1.3,1.17c-1.21,1.62-5.18,3.94-6.95,5-2.44,1.55-3.56,2.84-4.07,4.93a21.69,21.69,0,0,0-.22,5.09,14.19,14.19,0,0,1-.27,6.32,7.48,7.48,0,0,0,.05,2.59c.17,1.65,0,2.59-.42,3.3.06.29.21.26.06.29-.56,1-.56,1.8-.36,3.59.14,1.5.14,2.27-.21,2.79a15.39,15.39,0,0,0-1.16,4.21,5.23,5.23,0,0,1-.27,1.73,10.29,10.29,0,0,1-1.27,4.38c-.33.68-.77,1.53-1.19,2.53-2.42,5.53-2.89,7-6.14,11.46-1.44,2-6.27,4.6-8.39,4.72C272.54,377.38,271.36,376.85,270,375.9Zm8.45-3.66a18.21,18.21,0,0,1,2.33-2.14c1.56-1.38,3.24-2.93,3.66-5.46a5.11,5.11,0,0,1,1.24-3,23.65,23.65,0,0,0,3.46-7.26l.74-2.44a12.36,12.36,0,0,0,.51-2.85,8.45,8.45,0,0,1,.18-2.18l.23-1.11c.63-2.27.75-3.21.37-4.36a4.33,4.33,0,0,1,.36-2.82,4.62,4.62,0,0,0,.68-2,1.12,1.12,0,0,1,0-.62,22.4,22.4,0,0,1-.25-6.68l.21-2c.09-1.08-.06-1.82-1.09-1.62a3.28,3.28,0,0,0-1.85.68,2.7,2.7,0,0,1-.71.29,9.65,9.65,0,0,0-2.71,1.76,9.55,9.55,0,0,1-1.85,1.44,25.42,25.42,0,0,0-7.4,5.13,15.53,15.53,0,0,1-2.06,1.94c-1.33,1-2.18,2.11-3.81,4.72-.82,1.24-1.5,2.44-2.24,3.35-3.15,3.38-3.28,5.08-4.08,8.76-.15.79-.32,1.44-.59,2.41-.77,2.29-.86,3.38-.37,5.12a3.53,3.53,0,0,1,.47,1.59c-.5,1.32-.44,1.62.38,2.68a21.33,21.33,0,0,1,2.17,4c.73,2.15,2.37,2.74,4,3.48a5.15,5.15,0,0,1,1.85.86,3.65,3.65,0,0,0,1.56.15c.29-.06-.15,0,.47.06C276.25,373.74,277.67,373.15,278.4,372.24Zm17.66-99.36a2.5,2.5,0,0,1,.59-2.41l-.12.18,1-.65a1.81,1.81,0,0,1,1-.49c.59-.12,1.12.23,1.56.91a4.39,4.39,0,0,1,0,1.68c-.82,1.23-1.06,1.58-2.12,1.64A1.42,1.42,0,0,1,296.06,272.88Z"/><path class="cls-1" d="M366.39,286.8c-.71,1.82-1.39,3.79-2,5.29-2.27,4.73-4.69,8-9,10.81a6.37,6.37,0,0,1-3.1,1.37,13.67,13.67,0,0,0-2.17.59c-2,.7-4-.28-6.68-1.28-.15,0-.67-.33-1.26-1-1.44-1.85-3-3.68-3.4-6.36a1.19,1.19,0,0,0-2.21-.33,10.38,10.38,0,0,0-1.41,2.12,24.21,24.21,0,0,1-2.72,4.82,16.36,16.36,0,0,1-1.3,1.94c-1.86,3-5.12,4.22-8.48,4.27a1.68,1.68,0,0,1-1.32-.5,24.07,24.07,0,0,1-2.47-2.42c0-.29-.35-1-.23-1.17-1.34-4.48-.72-7.51-.09-11.3a107.56,107.56,0,0,0,1.23-11.56c0-1.38,1.21-2.38,2.41-1.7a4.11,4.11,0,0,1,1.21.68.14.14,0,0,1,.17.12c.18.12.24.41,0,.91a2.16,2.16,0,0,1-.32.68,11.43,11.43,0,0,0-.6,5.47,6.17,6.17,0,0,1-.54,2.7,13.12,13.12,0,0,0-.56,2.56,15.18,15.18,0,0,1-.18,2.18c-.15,1.55-.25,3.41-.25,4.94s.88,2.88,2.73,4.5c.35.24,1.38,0,1.53,0,2.27-1.67,4.27-3.14,5.27-5a38.34,38.34,0,0,0,2.07-5.76c.8-2.15,1.57-4.44,2.43-6.29a5.78,5.78,0,0,0,.92-3.09c0-.76,0-.76,1.33-1.79a1.7,1.7,0,0,1,2.82,1.12,20.63,20.63,0,0,1,.4,4.36,25.8,25.8,0,0,0,.4,5.12,1.86,1.86,0,0,0,0,.91c.23,1.94,1.28,3.41,3.19,5.33,2.79,2.51,5.41,2.6,8.71.72a7.84,7.84,0,0,0,3.36-2.34c.12-.18.26-.21.68-.44a6.1,6.1,0,0,0,1.5-1.68c2.33-2.14,3.21-4.61,4.19-7.4l1.3-3.47c.53-.41.8-.61,1.33-.26A1.81,1.81,0,0,1,366.39,286.8Z"/><path class="cls-1" d="M372,303c-.59.12-.92,0-1.36.12-1.82.05-2.85-.51-4.29-2.36l-.11-.59c-.06-.3-.24-.42-.27-.56-.29-1.47-.08-2,.36-2.06,1.06-.82,1.68-.79,2.35-.47a5.31,5.31,0,0,0,1.47,1.24c.36.24.56.5.88.59a3.23,3.23,0,0,0,3.92-.31,9.88,9.88,0,0,0,3.25-6.76,7.37,7.37,0,0,0-.32-2.39c-1.38-2.32-2.79-4.8-4-7.15a26.41,26.41,0,0,1-1.67-3,.48.48,0,0,0-.2-.26c-.82-1.06-1.08-2.39-1.53-2.3-.26.21-.85,1.85-1.21,2.38l-.2.5a10.93,10.93,0,0,0-.65,1.35,4.55,4.55,0,0,1-.57,1.8,12.41,12.41,0,0,0-1,2.79,12.37,12.37,0,0,1-1.19,3.29c-.85,1.09-1,1.12-2.65.52l0-.14a20.69,20.69,0,0,1,1.65-5.53,32.51,32.51,0,0,0,2.16-6.08,13.26,13.26,0,0,1,1.45-4.27c.45-.85,0-1.67-.49-2.5a6.16,6.16,0,0,1,.12-3.23c.63-1.5,3-2.44,4.6-2.29.15,0,.76.77.59.65a5.87,5.87,0,0,0-.42,2.53,13.29,13.29,0,0,1-.27,2.5c-.68,2-.48,3,1.05,5.3a13.25,13.25,0,0,1,1.17,2.06,14.83,14.83,0,0,0,2.4,2.89c1.35,1.41,1.74,1.79,2,2.5A17.34,17.34,0,0,1,381,295.83l-.2.5,0,.15c-.39,1.15,1.4,1.71,2.08,1.27s1.12-.53,2.12-.88c1.83-.82,3.95-1.7,5.33-3.19l3.48-3.29.12-.18a2.23,2.23,0,0,1,.47-.7,4,4,0,0,0,1.33-1.79c1.65-1.71,3.92-5.67,5.37-9.17a1.3,1.3,0,0,1,2.21-.44l.12.59-.07.47a2.39,2.39,0,0,1-.47,1.47,5.52,5.52,0,0,1-1.45,2.74,10.5,10.5,0,0,0-1.65,3.23c.18.12-.86,1.85-1.15,1.91a16,16,0,0,1-3.3,4.17,32.24,32.24,0,0,0-2.25,2.58c-.91,1.56-1.71,2.17-3.8,3.2a27.38,27.38,0,0,0-3,1.67c-1.06.82-2.09,1-4.56,1.67a22.87,22.87,0,0,0-3.21.78A56.45,56.45,0,0,0,372,303Z"/><path class="cls-1" d="M408.47,293.16a7,7,0,0,0-1.76-.42c-.15,0-.32-.09-.7-.47a1.48,1.48,0,0,0-1.18-.53c-.79-.15-2.64-3.3-3-6a30.24,30.24,0,0,1-.53-11.21,7.6,7.6,0,0,1,.27-1.74l.35-2.05c-.17-.89-.11-1.36-.17-1.65a10.55,10.55,0,0,0,.92-4.62,18.6,18.6,0,0,1,.36-2.82c.06-1.24-.91-1.5-2.5-1-.29.06-.44.09-.61,0a6.53,6.53,0,0,0-2.77.7l-1.18.24a6.2,6.2,0,0,1-2.35.46c-.3.06-.68-.32-.79-.91-.24-.41-.36-.24.06-.47l.26-.21a7.3,7.3,0,0,1,4-1.55,7.55,7.55,0,0,0,2.91-.73,5,5,0,0,1,2-.7,2.83,2.83,0,0,0,2.07-2.7,3.77,3.77,0,0,0,.38-2.68,2.38,2.38,0,0,1,.07-2c.56-1,.62-1.5.33-2.2l1.24-5.29c.21-1.27.77-1.53,1.8-1l.7.47a1.36,1.36,0,0,1,.65.94l.26,1.33a3.63,3.63,0,0,1,.14,1.5,25.22,25.22,0,0,0-.36,3.59,16.21,16.21,0,0,1-.36,3.58l-.2.5c-.54,1.18-.57,1.8.4,2.06a7.09,7.09,0,0,0,3.51-.84c3.88-2,6.74-2.25,10.74-2.89a.89.89,0,0,1,.62,0l.38.38c.32.09.17.12.17.12a2.31,2.31,0,0,1-.23,1.12,4.41,4.41,0,0,1-1.27.55c-.88.18-1.59.47-2.18.59a24.84,24.84,0,0,1-3.47,1,2.3,2.3,0,0,0-1,.35l-.3.06c-1.17.23-2.17.58-3.06.76a18.93,18.93,0,0,1-2.91.73c-2,.55-2.53,1.11-2.51,2.79A8,8,0,0,1,407,263a6,6,0,0,0-.54,4.24,2.72,2.72,0,0,1-.35,1.29c-.21.5-.27,1-.39,1.15-2.22,8.85-1.73,12.11,0,17.59.18.88.53,1.12,1.79,2.09,3.35,2.24,6.74,2.34,10.56.05,2.74-1.61,5.22-3,7.14-5.69a3.52,3.52,0,0,1,1.5-1.67,5.43,5.43,0,0,0,1.74-1.27,17.38,17.38,0,0,0,2.95-3.64c.35-.53.56-1,1.24-2.23a13.33,13.33,0,0,1,1.92-3.44c.26-.2.38-.38.88-.17l.53.35c.7.47.61.8.59.65-.07.47-.21.5-.27,1a6.09,6.09,0,0,1-.65,2.12,14.5,14.5,0,0,0-2.13,3.17c-.56,1-1.24,2.23-1.71,2.94a25,25,0,0,1-4.57,4.72c-.68.44-1.44,1.21-2.24,1.82a25.88,25.88,0,0,1-5.92,4.08C413.68,294.73,410.59,293.81,408.47,293.16Z"/><path class="cls-1" d="M475.28,320.92c-1.77.35-3.15-.45-4.23-2.07-.18-.12-.21-.26-.59-.65a1.15,1.15,0,0,1-.26-.56l0,.15-2.4-7.47a11.24,11.24,0,0,0-.37-5c-.12-.59-.11-1.35-.23-1.94a71.32,71.32,0,0,1-.57-8.3l.06-2a13.36,13.36,0,0,0-.43-4.5,2.48,2.48,0,0,1,.15-.79,57.76,57.76,0,0,0,1.11-9.09,2.35,2.35,0,0,0-1.09-2.38,1.36,1.36,0,0,1-.55-1.27c0-.62.15-.79,1.15-1.91.65-.59,1.68-1.55,1.68-2.32a13,13,0,0,1,.39-2.68,11.41,11.41,0,0,0,.48-4.52,5.93,5.93,0,0,1,.48-3c.65-2.12.88-3.24.39-4.21a7.8,7.8,0,0,0,.12-1.71,6.12,6.12,0,0,1,.33-2.2c1.15-2.68,1.71-4.47,1-7.24a4.43,4.43,0,0,1,.12-1.7c.77-1.53,1-3.26,1.79-8a42.16,42.16,0,0,1,1.25-6.82l1.21-3.15c1.21-2.38,2.27-4,3.75-5a2.94,2.94,0,0,1,3.32-1,2.83,2.83,0,0,1,2.7,2.83c.32,1.62.79,3.21.34,4.82a12.75,12.75,0,0,0,0,1.53,4.35,4.35,0,0,1,0,1.53,5.86,5.86,0,0,1-.24,2.65c-.83,1.23-1,2-1.31,4.23a33.14,33.14,0,0,1-3.26,10.59c-.32.67-.53,1.17-1.09,2.2a13.93,13.93,0,0,0-1.89,4.35,12.15,12.15,0,0,1-2.75,5.44,5.4,5.4,0,0,0-1.24,2.23,30,30,0,0,1-1.71,2.94c-.29,0-.53.41-.59.88l-.12.17-.78,5.36a2,2,0,0,0,1.74,1.79c1.17.54,3.47.54,5.94-.1l.88-.18c5.86-1.31,11.28-4.06,14.49-7.14,2.83-2.7,3.12-2.76,5.31-6.4.44-.86.68-1.21,1.27-1.32.88-.18.88-.18,1.26.2a2.6,2.6,0,0,1,.41,2.06l-.51,1.33a14.37,14.37,0,0,1-3,4.11,30.8,30.8,0,0,1-6.84,5.63l-1.5.91a21.93,21.93,0,0,1-7.13,2.63l-1.76.35a19.42,19.42,0,0,1-3.06.76c.2,1,.73,1.38,1.9,1.92l.53.35a14.85,14.85,0,0,1,3.52,3.89c.44.68.68,1.09.62,1.56l.06.3a3,3,0,0,0,.23,1.94,13.25,13.25,0,0,1,2,6.18l.34,1.76a15.43,15.43,0,0,1,.26,2.86,16,16,0,0,0,1.05,5.3,9.26,9.26,0,0,0-.06,2,23.85,23.85,0,0,1-.9,5.52l-.62,1.5a15.26,15.26,0,0,0-1.21,3.15,4.16,4.16,0,0,1-1.83,2.35l-3.56,2.84a4.09,4.09,0,0,1-3.42,1.29A3.62,3.62,0,0,0,475.28,320.92Zm5.48-4c1.83-2.35,3.81-4.73,4.22-8,.6-5.47,1.41-10.67-.32-14.77l-1.37-6.91a2.63,2.63,0,0,0-1.23-2.36,6.68,6.68,0,0,1-1.81-2.24,24,24,0,0,0-2.29-3.06c-.41-.53-.44-.68-.79-.92-.65-.94-2.09-1.27-3.06-1.53a7.17,7.17,0,0,1-1.74.49c-1.76.35-2.26.91-2.24,2.59a18.31,18.31,0,0,1-.12,2.47,10.21,10.21,0,0,0,.25,4.38,1.21,1.21,0,0,1,.06,1.06c-1.42,2.12-.86,4.15-.45,6.21a6.42,6.42,0,0,1,.23,2.7,13.63,13.63,0,0,0,.37,5,6,6,0,0,0,.17,1.64l.47,2.36a16.54,16.54,0,0,1,.45,5.41,6.36,6.36,0,0,0,6.37,6.69C478.85,318.08,480.32,317.78,480.76,316.93Zm-5.45-63.14a84,84,0,0,0,5-9.69,4.74,4.74,0,0,1,.27-1,10.25,10.25,0,0,0,.56-1.8c1.86-5.26,2-12.17,2-15.52,0-.15-.26-.56-.41-.54-.38-.38-1.11-.23-1.7-.12a7.25,7.25,0,0,0-2.48,4.47,5.85,5.85,0,0,1-.72,2.59c-.94,2.17-2.13,8.52-2,10.17a6.77,6.77,0,0,1-.42,3.29l-.62,1.5c-.86,1.85-1,2.8-.6,3.94a6.72,6.72,0,0,0-.41,2.53c-.06.47-.63,3-.13,3.24C474.65,256.67,475,254,475.31,253.79Z"/><path class="cls-1" d="M507.76,276.42a29.4,29.4,0,0,0-2.85-1.27l-.5-.2-.52-.36a16.34,16.34,0,0,1-3.32-5.92v-2.29a1.12,1.12,0,0,1,0-.62,6.47,6.47,0,0,0,0-1.53,6.36,6.36,0,0,0-.52-1.12c-.44-.68-.68-1.09-.56-1.26a7.16,7.16,0,0,0,.62-3c.24-1.12.3-2.36.92-3.09a4.51,4.51,0,0,0,.71-2.59,6.1,6.1,0,0,0,.18-1.41,28.08,28.08,0,0,0,4.16-6c1.33-2.56,5.31-3.34,7.63-1.66,1.61,1.21,2,1.89,1.93,2.83-.33,2.2.35,3.29,2.67,4.21l1,.41a2.5,2.5,0,0,1,2,1.6c.2.26.29.7.49,1a7.51,7.51,0,0,1,1.14,4.21,2.9,2.9,0,0,0-.3,1.59c0,1.67.62,2.32,1.91,2.68A11.57,11.57,0,0,0,535.78,258l.5-.56c.38-.38.41-.23.38-.38a15.34,15.34,0,0,0,3.13-3.52,12.05,12.05,0,0,1,2-3.29.81.81,0,0,1,1.23.06c.53.35.85.44,1.21.68-.15,1.56-.12.94-1.27,2.85l-1.33,2.55-2.13,2.41-.5.56a1.76,1.76,0,0,0-.68.44c-.38.38-.79.62-1.56,1.38-2.5,2-5,4-10.48,4.21a7.66,7.66,0,0,1-3.06,0c-1.76-.42-2.62.67-3.27,3.55-.68,2-1.83,3.11-4.84,4.93a5.9,5.9,0,0,1-1.53.76,16,16,0,0,0-2.35,1.23A3.21,3.21,0,0,1,507.76,276.42Zm6.07-4.86,1.6-2c3.06-3.06,2.86-4.09-1.55-5.51-3.44-1.15-5.08-5.57-3.16-9,.21-.49.36-.52.68-1.2a9.22,9.22,0,0,0,1-1.26,4.22,4.22,0,0,0,.82-2c0-2.15-.46-2.36-1.78-3.62-.44-.68-1.36-.65-2.33-.15a5,5,0,0,0-1.71,2.17c-2.18,4.41-3.28,7.37-3.76,11.9l-.15,1.56c-.36,2.83-.27,4,.61,5.39l.23,1.17a7.47,7.47,0,0,0,.49,2.51,3.39,3.39,0,0,0,2.32,1.68,5,5,0,0,0,1.5-.15,2.93,2.93,0,0,1,.94.12A4.54,4.54,0,0,0,513.83,271.56Zm5.41-11.32c.21-.5.15-.79,0-1.68l-.18-.88c-.09-.44-.35-1-.49-1.74s-.38-1.14-.47-1.59a1.47,1.47,0,0,0-1.53-.76c-.88.17-1.59.46-1.68.79a4.82,4.82,0,0,0-1,3.26c.09.44,0,.91.09,1.21-.53,1.94.64,3.23,2.82,3.42C518.15,262.44,519.47,261.42,519.24,260.24Z"/><path class="cls-1" d="M562,261.42a3.9,3.9,0,0,1-3.73-1.86c-1.26-1.74-2.67-3.45-2.34-5.65l.83-5.83a2.27,2.27,0,0,1,.42-1c.82-1.23,1-1.73.3-2.35-.44-.68-1.71-.88-2.65-1a3.66,3.66,0,0,1-.94-.12c-.29,0-.82-.3-1.5-.62-1.91-1.16-3.17-1.37-4.26-.69a5.32,5.32,0,0,0-1.83,3.88l-2.49,6c-.09.33-.23.36-.32.68a10.55,10.55,0,0,1-1.45,2.73l-.59.12c-.44.09-1.55-.92-1.44-1.09.33-.68.39-1.15.8-2.15a6.92,6.92,0,0,1,1.1-3,25.39,25.39,0,0,0,2.07-5.76c.26-1,.5-2.09.8-2.91.5-1.32.24-2.65-.79-4.74a2.88,2.88,0,0,1-.11-2.88l1.07-2.35a5.3,5.3,0,0,0,.26-1,3.67,3.67,0,0,1,4.21-1.9,1.84,1.84,0,0,1,1.38,2.32,18.33,18.33,0,0,0-1.72,5.24c-.53,1.17-.23,1.88.76,3.06,1.41,1.71,4.59,3.07,7.82,3.19a25.88,25.88,0,0,1,2.68.39c.47.06.64.18.94.12a2.36,2.36,0,0,1,.79,1.68,10.89,10.89,0,0,0-1,2,20.63,20.63,0,0,1-.82,2,9.11,9.11,0,0,0-.11,8c1.05,3,2.43,3.8,5.55,3.34.89-.17,1-.2,1.36-.11a15.44,15.44,0,0,0,5.88-2.7c.3-.82.68-1.2,1-1.26a6.94,6.94,0,0,0,2.33-2.14c.5-.56.71-1.06,1.27-1.32a7.68,7.68,0,0,0,2.42-4,6.14,6.14,0,0,1,.79-1.38,3.88,3.88,0,0,0,.68-1.21c.65-2.11,1.21-3.14,1.66-3.23.29-.06.82.3,1.41.95,0,.29-.16,2.32-.45,2.38l-.42,1a5.34,5.34,0,0,1-.73,1.67,1.76,1.76,0,0,1-.59.88,3.54,3.54,0,0,0-1.13,2.06,7.62,7.62,0,0,1-1.71,2.94,12.27,12.27,0,0,1-1.83,1.58,9.23,9.23,0,0,0-2.53,2.65c-1.92,1.9-3,2-5.45,2.6C567.16,262.08,564.83,262.69,562,261.42Z"/><path class="cls-1" d="M617.27,253.39a1.28,1.28,0,0,1-.7-1.24,21.28,21.28,0,0,0,.1-4.91,21.9,21.9,0,0,1,.75-7,4.11,4.11,0,0,1-.09-1.2,2.54,2.54,0,0,0,.06-1.24c-.32-.85-.26-2.09.31-4.65a13.66,13.66,0,0,0,.3-4.64,4.71,4.71,0,0,1,1-2.65c.06-.47.32-.68,1.09-.67a1.63,1.63,0,0,1,1.41.94,7.65,7.65,0,0,0,.29.71c.5,1,.44,1.44.32,1.62a14.33,14.33,0,0,1-.44,1.61c-.95,2.18-1,3.27-.4,4.21,0,0-.38,2.67-.5,2.85a7.55,7.55,0,0,0-.54,4.24c.2,1,.38,1.14,1.65,1.35a18,18,0,0,0,2.18-2.88c.23-.35.2-.5.56-1a3.49,3.49,0,0,0,.91-1.56,53.09,53.09,0,0,1,6.3-12.25,4.56,4.56,0,0,1,5.79-1.61c1,.27,1.56.92,1.27,1.74a54.5,54.5,0,0,0-.52,6.67,34.41,34.41,0,0,1-.15,3.86c-.3.82,1.38.8,1.55.15,1.6-1.23,2.89-3.17,5.14-7.29l1.42-2.88a22.18,22.18,0,0,1,4.68-4.9l3-2.73c.62-.73,1.09-.67,2.27-.14.67.33.73.62.76.77a5.42,5.42,0,0,1,0,4A50.3,50.3,0,0,0,654,235.73a24.64,24.64,0,0,0,0,3.21c.09,1.2.88,2.12,2.56,2.86a5.78,5.78,0,0,0,5.35-.76,21.17,21.17,0,0,0,6.13-5.34,16.81,16.81,0,0,1,2.69-2.67,11.89,11.89,0,0,0,4.19-5.87,11.83,11.83,0,0,1,1.35-2.41c.27-.21.48-.71.74-.91.83-1.24,1.09-1.44,1.48-1.06s1.11,1.77.84,2a7.74,7.74,0,0,0-.38,1.15l-.41,1a25.68,25.68,0,0,1-1.63,2.61,46.32,46.32,0,0,1-3.81,5.5c-3.09,3.67-5.21,6.07-9.66,8.33a16.85,16.85,0,0,1-6.56,1.6c-2.24.29-3.47-.53-4.62-3.21a15.57,15.57,0,0,1-1.4-4,22.76,22.76,0,0,1,0-3.2l0-2.15.45-4.68,0-.14c0-.3-.41-.53-.91-.74l-.14,0a1.2,1.2,0,0,0-1,.35,14.87,14.87,0,0,0-1.92,3.44A27.23,27.23,0,0,1,645.7,234a12.87,12.87,0,0,1-1.18,1.76c-.83,1.23-1.8,2.5-2.48,3.7-.8,1.38-1.71,2.17-4.57,4a2,2,0,0,1-2.2.44c-.47-.06-1-.42-.91-.74a6.54,6.54,0,0,0-.21-1.79,8,8,0,0,1,.1-2.62c.56-2.56,1.16-8,1.46-10.38,0-.15,0-.15-.23-.41,0,0,0-.15-.5-.21a1.12,1.12,0,0,0-.62,0,1.68,1.68,0,0,0-1.15.38,129.73,129.73,0,0,0-6.7,13.25c-1.19,2.53-2.49,5.23-3.7,7.61-.85,1.85-1.36,3.17-2.68,4.2C619.36,253.89,618.62,254,617.27,253.39Z"/><path class="cls-1" d="M679.15,235.34c-1.71-2.41-2.32-4-2.35-5.65,0-1.06,0-1.82-.19-3.32a13.94,13.94,0,0,1,.1-5.68,12.4,12.4,0,0,1,.35-2.06,10.25,10.25,0,0,1,.36-2.06,13.2,13.2,0,0,1,2.4-5.67c1.82-2.35,3.44-3.43,5.68-3.72a3.33,3.33,0,0,1,2.73.68c1.94,1.3,2.5,2.56,1.79,4.38a9.55,9.55,0,0,0-.21,3.56c.25,3.62-1.58,6-3.67,8.53a10.92,10.92,0,0,1-2,1.46c-3.24,2.17-4.27,1.61-2.25,7.18.91,1.5,2.32,2.44,4.73,3,4.79,1,7.06.13,10-2l1.36-.88a16.86,16.86,0,0,1,2.32-1.38,6.61,6.61,0,0,0,1.33-1c1-1.11,1.62-1.85,3-3.2a20.44,20.44,0,0,0,4.8-5.84l1.66-3.23a13.13,13.13,0,0,1,1.5-2.44c.39-.38.68-.44,1.39,0,.29-.06.58.65.43,1.44a2.64,2.64,0,0,0-.26,1c-.15.8-.21,1.27-.36,1.3a26.6,26.6,0,0,1-2,3.61,21.71,21.71,0,0,1-1.5,2.44,15.27,15.27,0,0,1-4.6,5.34c-1.06.82-2.3,1.53-2.86,2.56-3.63,3.31-6,3.93-10,5.18l-.74.15C687.46,240.27,681.93,238.61,679.15,235.34Zm3.49-11.7a6.26,6.26,0,0,0,2.86-4.08,9,9,0,0,1,.63-2.26c.88-1.71,1-2.5.83-3.53l-.15-.74c-.32-1.62-1.11-2.53-2.29-2.3a2.12,2.12,0,0,0-1.88,1.29c-.39.38-.36.53-.36.53a7.45,7.45,0,0,0-1.5,3.21c-.18.64-.06.47-.18.64a8,8,0,0,0-.54,4.24,13.81,13.81,0,0,1-.12,2.47,2.4,2.4,0,0,0,.35,1C680.43,224.84,682.29,224.17,682.64,223.64Z"/></g></g></svg>