<svg id="レイヤー_1" data-name="レイヤー 1" xmlns="http://www.w3.org/2000/svg" viewBox="0 0 99.06 291.23"><defs><style>.cls-1,.cls-2{fill:#707070;}.cls-2{font-size:24px;font-family:PrentonRPProLight-Regular, Prenton RP Pro;letter-spacing:0.04em;}.cls-3{letter-spacing:0.05em;}.cls-4{letter-spacing:0.01em;}.cls-5{letter-spacing:0.05em;}</style></defs><path class="cls-1" d="M603.55,971.07l-.27-.19-7.86,22.25c-4.31,12.24-8,22.53-8.13,22.87l-.28.6-.15-.39c-.68-1.83-17.5-44.37-17.54-44.39s-.2.14-.38.31a10.93,10.93,0,0,0-1.15,4.36,50.81,50.81,0,0,0,.47,10c.34,2.66,2.14,11.68,2.32,11.74a1.87,1.87,0,0,0-.09-.68,2.23,2.23,0,0,1-.09-.68,17.49,17.49,0,0,1,.46,1.79c.78,3.4,4,16.48,5,20.64a9.24,9.24,0,0,1,.31,1.43,1.58,1.58,0,0,1-.19-.54,1.33,1.33,0,0,0-.2-.54c-.11,0,1.38,5.51,2.58,9.62.46,1.55,1.94,6.39,2,6.45s-.44,1.3-1,2.86c-1.09,3.09-2.11,6.44-5.2,16.84-3.3,11.15-5.89,19-6.84,20.71a11.73,11.73,0,0,1-1.92,2.65c-.65.63-.85.72-1.5.76s-.65,0-1.39-.57a14.83,14.83,0,0,0-11.13-2.41,14,14,0,0,0-4.42,1.61,15.05,15.05,0,0,0-6.26,6.74,18.7,18.7,0,0,0-1.72,5.83c-.47,5.64,1.57,10.36,5.8,13.45a16,16,0,0,0,6.26,2.61,13.27,13.27,0,0,0,12.74-5.56c.78-1.16,1.5-2.77,3.2-7.18.28-.71,1.71-5,3.19-9.59,2.88-9,3.37-10.33,5.07-14.76,2.4-6.17,4.19-10.47,5.28-12.62,1.24-2.43,3.41-5.37,4.62-6.24a6.45,6.45,0,0,1,1.26-.61l.82-.28,1.45.44a4,4,0,0,1,2.31,1.22c1.66,1.53,2.46,2.63,4.24,5.82.87,1.56,1.86,3.49,2.22,4.29l1.66,3.76c2.94,6.59,3.71,8.56,7.46,18.88,1.67,4.59,3.25,8.83,3.51,9.44,2,4.61,2.73,6.08,3.76,7.36a13.2,13.2,0,0,0,12.4,4.64,15.17,15.17,0,0,0,7.28-3.65,14.37,14.37,0,0,0,4.44-11.69,16.73,16.73,0,0,0-1.87-6.72,29,29,0,0,0-2.18-3.2,14.16,14.16,0,0,0-7.3-4.63,14.6,14.6,0,0,0-8.45.24,15.74,15.74,0,0,0-4.34,2.3c-.6.48-.66.51-1.17.53-1,0-1.91-.73-3.23-2.69a10.91,10.91,0,0,1-1.3-2.47c-2-5.12-4-10.55-7.62-21.44-2.79-8.33-3.59-10.62-4.83-13.81l-1.13-2.85a27.61,27.61,0,0,1,.76-3.23c1.73-6.37,2.67-10.47,5.07-22,1.75-8.44,2.9-14.19,3.49-17.53,1.42-8.08,1.77-14.59,1-18.75A6.15,6.15,0,0,0,603.55,971.07ZM633.63,1087a9.52,9.52,0,0,1,.89,3.88,10.69,10.69,0,0,1-6.15,10.6,9.06,9.06,0,0,1-10.32-1.27,11.2,11.2,0,0,1-3.46-4.53c-1.73-4-2.14-6.25-1.7-8.9a9.46,9.46,0,0,1,2.64-5c3.14-3,8.8-3.58,12.93-1.22a12.52,12.52,0,0,1,3,2.41A21.16,21.16,0,0,1,633.63,1087Zm-63.32-90.63a.2.2,0,0,1-.11-.18c0-.1,0-.09.09,0S570.36,996.34,570.31,996.32Zm6,24.88c-.05,0-.11-.1-.12-.18s0-.09.09,0S576.4,1021.22,576.35,1021.2Zm.12.45c-.05,0-.11-.1-.12-.18s0-.08.1,0S576.52,1021.67,576.47,1021.65Zm-12.69,65.2a12.42,12.42,0,0,1,.15,4.65,31.6,31.6,0,0,1-1.69,5.36,12.68,12.68,0,0,1-5,5.4,9.07,9.07,0,0,1-9.07-.1c-3.88-2-5.91-5.66-5.8-10.37a12.94,12.94,0,0,1,1.35-5,10,10,0,0,1,4.72-5.38,11.24,11.24,0,0,1,8.62-1.13,8.9,8.9,0,0,1,6,4.72A11.6,11.6,0,0,1,563.78,1086.85Z" transform="translate(-538.92 -815.72)"/><path class="cls-1" d="M575.52,1018.81c0,.08.07.17.12.18s.05,0,0-.16S575.51,1018.71,575.52,1018.81Z" transform="translate(-538.92 -815.72)"/><path class="cls-1" d="M575.65,1019.26a.19.19,0,0,0,.11.18s0-.05,0-.15S575.63,1019.16,575.65,1019.26Z" transform="translate(-538.92 -815.72)"/><rect class="cls-1" x="45.3" width="2" height="160.94"/><text class="cls-2" transform="translate(61.87 38.78) rotate(90)">t<tspan class="cls-3" x="8.78" y="0">o </tspan><tspan class="cls-4" x="29.66" y="0">T</tspan><tspan class="cls-5" x="41.83" y="0">op</tspan></text></svg>